<?xml version="1.0" encoding="UTF-8" standalone="no"?>
<!-- Created with Inkscape (http://www.inkscape.org/) -->

<svg
   width="23.102442in"
   height="3.7313032in"
   viewBox="0 0 586.80203 94.775102"
   version="1.1"
   id="svg1"
   xml:space="preserve"
   sodipodi:docname="original.svg"
   inkscape:version="1.3.2 (091e20e, 2023-11-25)"
   inkscape:export-filename="../../../hole/metranova-logo.svg"
   inkscape:export-xdpi="96"
   inkscape:export-ydpi="96"
   xmlns:inkscape="http://www.inkscape.org/namespaces/inkscape"
   xmlns:sodipodi="http://sodipodi.sourceforge.net/DTD/sodipodi-0.dtd"
   xmlns="http://www.w3.org/2000/svg"
   xmlns:svg="http://www.w3.org/2000/svg"><sodipodi:namedview
     id="namedview1"
     pagecolor="#ffffff"
     bordercolor="#000000"
     borderopacity="0.25"
     inkscape:showpageshadow="true"
     inkscape:pageopacity="0.0"
     inkscape:pagecheckerboard="false"
     inkscape:deskcolor="#d1d1d1"
     inkscape:document-units="mm"
     inkscape:zoom="0.49497475"
     inkscape:cx="1259.6602"
     inkscape:cy="260.61935"
     inkscape:window-width="1936"
     inkscape:window-height="945"
     inkscape:window-x="658"
     inkscape:window-y="57"
     inkscape:window-maximized="0"
     inkscape:current-layer="layer6"
     showguides="true"
     inkscape:export-bgcolor="#ffffffff"
     showgrid="false"
     labelstyle="default"><sodipodi:guide
       position="489.4527,4.5642975"
       orientation="0,-1"
       id="guide4"
       inkscape:locked="false" /><sodipodi:guide
       position="376.45894,87.896711"
       orientation="0,-1"
       id="guide7"
       inkscape:locked="false" /><sodipodi:guide
       position="375.13649,72.096531"
       orientation="1,0"
       id="guide1"
       inkscape:locked="false" /><sodipodi:guide
       position="470.10302,53.103228"
       orientation="1,0"
       id="guide2"
       inkscape:locked="false" /></sodipodi:namedview><defs
     id="defs1" /><g
     inkscape:groupmode="layer"
     id="layer2"
     inkscape:label="Text"
     style="display:inline"
     transform="translate(2.086707,-0.38323492)"><g
       id="text33-5-52-3-2-0"
       style="font-weight:bold;font-size:125.653px;font-family:'Trebuchet MS';-inkscape-font-specification:'Trebuchet MS Bold';white-space:pre;stroke:#ffffff;stroke-width:0.405226"
       inkscape:label="MetrAN"
       transform="matrix(0.91740266,-0.00106067,0.00106067,0.91740266,-213.78459,-760.5542)"
       aria-label="MetrAN"><path
         style="letter-spacing:-5.76809px"
         d="m 321.71775,927.99868 h -15.46121 l -9.32581,-48.46967 -18.09943,49.63539 h -5.70592 l -18.09943,-49.63539 -9.69394,48.46967 h -15.39985 l 18.09943,-89.94497 h 8.46685 l 19.44922,60.5564 19.01974,-60.5564 h 8.4055 z"
         id="path1" /><path
         d="m 383.50042,899.77584 h -46.93581 q 0.42948,7.85331 5.39915,12.20944 4.96967,4.35614 13.37517,4.35614 10.49154,0 15.95204,-5.46051 l 5.95134,11.71862 q -8.09873,6.56487 -24.17348,6.56487 -15.03173,0 -23.80535,-8.77362 -8.71227,-8.83498 -8.71227,-24.60295 0,-15.52257 9.57123,-25.15515 9.63258,-9.63257 23.0691,-9.63257 14.29549,0 22.9464,8.5282 8.65091,8.52821 8.65091,21.71932 0,2.82228 -1.28843,8.52821 z M 337.11679,888.24128 H 369.389 q -1.5952,-14.41819 -15.95204,-14.41819 -13.12976,0 -16.32017,14.41819 z m 62.27431,-13.68194 h -7.6079 v -12.33215 h 7.6079 v -13.37518 l 15.3385,-5.64457 v 19.01975 h 18.03808 v 12.33215 H 414.7296 v 28.77503 q 0,7.05571 2.20874,10.0007 2.20875,2.88364 7.73061,2.88364 5.52186,0 10.30747,-3.00635 v 14.11142 q -5.3378,1.84062 -15.21579,1.84062 -9.81664,0 -15.09309,-5.52186 -5.27644,-5.58321 -5.27644,-15.82933 z"
         id="path2" /><path
         style="letter-spacing:-14.4202px"
         d="m 484.85723,876.52267 q -4.11072,-2.69958 -9.01904,-2.69958 -5.33779,0 -9.50987,4.84697 -4.11072,4.84696 -4.11072,11.84132 v 37.42594 h -15.3385 v -65.71013 h 15.3385 v 6.01269 q 6.44218,-7.23977 17.11777,-7.23977 7.85331,0 12.02539,2.3928 z"
         id="path3" /><path
         style="letter-spacing:0px"
         d="m 539.52164,927.93732 -6.56487,-18.22214 h -30.79971 l -6.25811,18.22214 h -17.73131 l 35.83074,-91.11069 h 6.99436 l 36.1375,91.11069 z m -22.02608,-63.6241 -10.79831,33.19252 h 21.59661 z"
         id="path4" /><path
         d="m 625.60131,929.1644 -43.6227,-56.87516 v 55.70944 h -15.3385 v -89.94497 h 7.66925 l 42.45697,54.23694 v -54.23694 h 15.3385 v 91.11069 z"
         id="path5" /></g><g
       id="text7"
       style="font-weight:bold;font-size:125.653px;font-family:'Trebuchet MS';-inkscape-font-specification:'Trebuchet MS Bold';letter-spacing:-15.196px;white-space:pre;stroke:#ffffff;stroke-width:0.303919"
       inkscape:label="VA"
       transform="matrix(0.91668475,0.0092817,-0.0092817,0.91668475,260.10741,-763.41973)"
       aria-label="VA"><path
         style="letter-spacing:-22.7939px;word-spacing:0px;vector-effect:non-scaling-stroke"
         d="m 271.40746,929.1644 h -8.77362 l -33.62199,-91.11069 h 17.54724 l 20.79901,60.74046 21.96473,-60.74046 h 17.17913 z"
         id="path6" /><path
         style="vector-effect:non-scaling-stroke"
         d="m 345.6756,927.93732 -6.56488,-18.22214 h -30.79971 l -6.25811,18.22214 h -17.73131 l 35.83074,-91.11069 h 6.99436 l 36.13751,91.11069 z m -22.02609,-63.6241 -10.7983,33.19252 h 21.59661 z"
         id="path8" /></g></g><g
     inkscape:groupmode="layer"
     id="layer6"
     inkscape:label="BW Logo"
     style="display:none"
     transform="translate(2.086707,-0.38323491)"><g
       id="g72"
       transform="matrix(0.38243151,0,0,0.38243151,282.24979,-614.17817)"
       inkscape:export-filename="metranova logos/metranova_icon_one_two_colork.png"
       inkscape:export-xdpi="96"
       inkscape:export-ydpi="96"
       style="stroke:none;stroke-opacity:1"><path
         style="color:#ffffff;fill:#ffffff;stroke:none;stroke-opacity:1;-inkscape-stroke:none"
         d="m 361.6582,1625.3652 c -16.1865,0.064 -32.13909,3.8616 -46.61914,11.0957 l -4.23047,2.1133 3.71289,2.9258 c 14.72749,11.6086 26.46054,26.2013 34.62305,42.5645 l 1.5957,3.1992 2.87305,-2.125 c 21.32686,-15.769 47.63177,-24.8767 75.59766,-24.6348 h 0.0762 c 1.22603,0.013 2.5134,0.079 3.85547,0.1328 l 7.77148,0.3106 -5.55078,-5.4493 c -19.6699,-19.3053 -46.13059,-30.1254 -73.69141,-30.1328 h -0.008 z m 0.0117,6 h 0.0117 c 23.30981,0.01 45.73825,8.2737 63.50586,23.1016 l -2.99805,-0.027 0.27344,0.289 c -25.57824,1.1093 -49.57598,9.6326 -69.63672,23.6934 -7.70814,-14.5004 -18.14814,-27.5276 -30.91992,-38.3926 12.52696,-5.5539 26.028,-8.6083 39.76367,-8.6641 z m -58.91992,12.3418 -1.75977,1.1895 c -1.3876,0.939 -2.75111,1.9122 -4.09179,2.916 -1.34068,1.0039 -2.65751,2.0384 -3.94922,3.1055 l -0.0274,0.023 -0.0273,0.022 c -0.15794,0.1368 -0.26574,0.237 -0.33008,0.293 -3.6627,3.188 -7.10104,6.6263 -10.28906,10.289 h 0.002 c -0.0234,0.027 -0.1026,0.1099 -0.23047,0.2578 h -0.002 c -3.18746,3.6929 -6.11471,7.6023 -8.75976,11.7012 -0.10066,0.1556 -0.19458,0.3026 -0.28321,0.4414 -2.63926,4.122 -4.98669,8.4242 -7.02734,12.873 -0.0643,0.14 -0.092,0.2092 -0.084,0.1914 -2.01851,4.4424 -3.726,9.0199 -5.10937,13.6992 -0.0293,0.099 -0.0778,0.2476 -0.13672,0.4493 l -0.0215,0.076 -0.0195,0.076 c -0.27875,1.1829 -0.53581,2.3706 -0.77344,3.5625 l -1.08789,5.4492 5.15234,-2.0801 c 16.15555,-6.5267 33.50656,-9.6452 50.95117,-9.1035 3.16615,0.098 6.33697,0.3184 9.50391,0.6582 l 0.0957,0.01 c 3.15885,0.3519 6.28896,0.8438 9.40039,1.4297 l 1.61524,0.3047 1.12695,-1.2012 c 1.84947,-1.9706 3.72526,-3.8854 5.66211,-5.7031 l 1.58008,-1.4844 -0.91406,-1.9668 c -4.69636,-10.1076 -10.83451,-19.5445 -18.26172,-27.998 -1.53036,-1.7418 -3.11546,-3.4421 -4.75391,-5.0977 -1.48186,-1.4973 -3.00802,-2.9584 -4.57617,-4.3809 -1.15306,-1.0459 -2.32861,-2.0727 -3.52735,-3.0761 h -0.002 c -1.21719,-1.019 -2.45736,-2.0149 -3.7207,-2.9883 l -0.0234,-0.02 z m -0.11133,7.3809 1.78125,1.3164 c 1.19691,0.9224 2.37241,1.8668 3.52539,2.832 1.13803,0.9527 2.25309,1.9251 3.34766,2.918 1.48818,1.3499 2.93747,2.7373 4.34375,4.1582 1.55478,1.571 3.05751,3.185 4.50976,4.8379 6.58968,7.5002 12.06056,15.8403 16.39258,24.7285 -1.08365,1.0615 -2.15532,2.13 -3.19531,3.2188 -2.74182,-0.4876 -5.49771,-0.9515 -8.32031,-1.2637 l -0.16407,-0.018 h -0.0957 c -3.2416,-0.3422 -6.48722,-0.5711 -9.73047,-0.6719 h -0.002 c -16.33681,-0.5073 -32.5386,2.2124 -47.88867,7.6407 1.20766,-3.8365 2.54655,-7.6323 4.21094,-11.295 h 0.002 v 0 c 0.0619,-0.1367 0.0845,-0.1909 0.0703,-0.1601 h 0.002 v 0 c 1.92467,-4.196 4.13954,-8.251 6.62891,-12.1387 h 0.002 v 0 c 0.0943,-0.1475 0.18383,-0.2865 0.26758,-0.416 h 0.002 c 2.49379,-3.8644 5.25278,-7.5515 8.25782,-11.0332 h 0.002 c 0.0188,-0.022 0.0909,-0.098 0.21289,-0.2383 v 0 c 3.00597,-3.4536 6.24765,-6.6951 9.70117,-9.7012 0.14435,-0.1256 0.23806,-0.2106 0.30078,-0.2656 1.20739,-0.9965 2.43849,-1.9642 3.69141,-2.9024 0.70247,-0.5259 1.42834,-1.0202 2.14453,-1.5273 z m 126.48633,18.0195 c -27.33908,-0.2502 -52.93644,9.0541 -73.24805,25.0313 l -1.70312,1.3398 0.73633,2.0371 c 0.414,1.147 0.79751,2.3428 1.1914,3.5742 l 0.66992,2.0938 2.19727,-0.01 c 0.0454,-2e-4 0.10034,0 0.16602,0 h 0.0117 0.008 c 41.83409,0.013 79.18369,24.4606 96.46093,61.3808 l 2.95118,6.3067 2.55664,-6.4766 c 0.48704,-1.2337 0.95057,-2.4772 1.39062,-3.7285 l 0.0254,-0.07 0.0215,-0.07 c 0.0312,-0.1051 0.0789,-0.2553 0.13672,-0.4531 v 0 c 1.3579,-4.6631 2.39209,-9.4148 3.09375,-14.2207 0.0304,-0.2084 0.0544,-0.3901 0.0762,-0.5449 h -0.002 c 0.69023,-4.8539 1.04117,-9.7497 1.04883,-14.6524 v 0 0 c 0,0.142 0,0.1327 0,-0.029 0,-1.7933 -0.0474,-3.5822 -0.13867,-5.3672 l -0.002,-0.023 -0.002,-0.023 c -0.0322,-0.4835 -0.0666,-0.9659 -0.10546,-1.4492 l -0.004,-0.047 c -0.0806,-1.2339 -0.16758,-2.4954 -0.29883,-3.7813 l -0.002,-0.017 -0.002,-0.018 c -0.0733,-0.6445 -0.15307,-1.2886 -0.23828,-1.9317 l -0.004,-0.035 c -0.12969,-1.0698 -0.26139,-2.1728 -0.43555,-3.3047 l -0.002,-0.014 -0.002,-0.012 c -0.11758,-0.7212 -0.24436,-1.4415 -0.37695,-2.1602 -0.17437,-0.9942 -0.35194,-2.019 -0.56836,-3.0683 l -0.002,-0.01 -0.002,-0.01 c -0.15545,-0.7297 -0.31931,-1.4574 -0.49024,-2.1836 l -0.004,-0.02 c -0.2239,-0.9794 -0.45638,-1.9789 -0.7207,-2.9961 l -0.002,-0.01 -0.002,-0.01 c -0.19627,-0.7398 -0.39899,-1.4775 -0.61133,-2.2129 l -0.002,-0.01 c -0.27065,-0.9545 -0.5514,-1.9226 -0.85937,-2.9004 h -0.002 v 0 c -0.23719,-0.7459 -0.48446,-1.4899 -0.73829,-2.2305 -0.3195,-0.9407 -0.65052,-1.885 -1.00195,-2.8301 v 0 c -0.27916,-0.7495 -0.5671,-1.4955 -0.86328,-2.2383 h -0.002 c -0.36128,-0.9072 -0.7348,-1.8103 -1.1211,-2.707 h -0.002 c -0.31487,-0.7328 -0.63736,-1.4622 -0.96875,-2.1875 v 0 c -0.41558,-0.9074 -0.84467,-1.8014 -1.2793,-2.6836 l -0.004,-0.01 c -0.35059,-0.7164 -0.70943,-1.4284 -1.07617,-2.1367 h -0.002 -0.002 c -0.45394,-0.871 -0.91778,-1.7123 -1.37695,-2.5371 l -0.006,-0.012 c -0.39633,-0.7195 -0.80168,-1.4344 -1.21485,-2.1446 l -0.004,-0.01 -0.004,-0.01 c -0.49813,-0.8466 -1.00403,-1.6563 -1.49805,-2.4453 l -0.006,-0.01 c -0.42062,-0.6813 -0.84892,-1.3575 -1.28515,-2.0293 l -0.0274,-0.041 -0.0273,-0.039 c -0.15852,-0.2277 -0.31337,-0.4528 -0.46289,-0.6738 l -0.7207,-1.0645 -1.26758,-0.2129 c -1.90887,-0.3193 -3.89176,-0.6797 -5.96875,-0.9179 l -0.16992,-0.02 h -0.19727 -0.002 c -3.04391,-0.3271 -6.05878,-0.4493 -9.06836,-0.541 l -0.0215,-0.1347 z m -0.18945,6.0039 h 0.13672 c 3.74732,0.034 7.52737,0.2559 11.33398,0.6758 l 0.0918,0.01 c 1.38924,0.1618 2.84863,0.42 4.3164,0.668 0.31973,0.4979 0.6403,0.9963 0.95117,1.5 l 0.004,0.01 0.006,0.01 c 0.49523,0.791 0.97664,1.5603 1.42383,2.3203 0.38913,0.6691 0.76912,1.3434 1.14258,2.0215 l 0.004,0.01 0.002,0.01 c 0.45307,0.8138 0.89384,1.6123 1.30664,2.4043 0.34552,0.6675 0.68343,1.3387 1.01367,2.0137 h 0.002 0.002 c 0.41738,0.8471 0.82382,1.6919 1.21094,2.5371 0.3125,0.684 0.6153,1.3717 0.91211,2.0625 h 0.002 c 0.36507,0.8473 0.71938,1.6998 1.06055,2.5566 v 0 c 0.2796,0.7012 0.55094,1.4059 0.81445,2.1133 0.32711,0.8797 0.64077,1.7712 0.94727,2.6738 h 0.002 v 0 c 0.23931,0.6982 0.47161,1.4 0.69532,2.1035 0.28042,0.8908 0.5448,1.8022 0.80859,2.7324 l 0.002,0.01 0.002,0.01 c 0.2016,0.6978 0.39581,1.3976 0.58203,2.0996 0.23783,0.9163 0.45836,1.8617 0.67968,2.83 l 0.002,0.01 0.002,0.01 c 0.16275,0.6909 0.31695,1.3839 0.46484,2.0781 0.19188,0.9323 0.36193,1.8997 0.53711,2.8984 l 0.002,0.012 0.002,0.014 c 0.12334,0.6686 0.24003,1.3389 0.34961,2.0098 0.15581,1.0127 0.28441,2.0652 0.41602,3.1504 l 0.002,0.016 0.002,0.018 c 0.0807,0.6075 0.15517,1.2152 0.22461,1.8242 0.11938,1.1704 0.20289,2.3738 0.2832,3.6055 l 0.002,0.023 0.002,0.022 c 0.0376,0.4643 0.0705,0.9293 0.10156,1.3945 4e-4,0.01 0.002,0.012 0.002,0.018 0.0849,1.674 0.1289,3.3453 0.1289,5.0156 0,-0.142 0,-0.1327 0,0.029 -0.007,4.6219 -0.33759,9.2367 -0.98828,13.8125 v 0 h -0.002 c -0.0277,0.1974 -0.0494,0.3681 -0.0703,0.5117 -0.50939,3.489 -1.36702,6.9107 -2.24415,10.3242 -19.06,-34.4765 -55.31023,-57.0722 -95.83203,-58.0273 18.88275,-14.1277 42.21852,-22.358 67.15821,-22.1602 z m -118.78125,32.5782 -2.97852,0.02 v 0.057 c -0.47696,0.015 -0.95521,0.016 -1.43164,0.037 h -0.002 c -16.36788,0.7286 -32.34585,5.0953 -47.04297,12.4434 l -1.48242,0.7422 -0.16211,1.6484 c -0.0812,0.8258 -0.16153,1.6483 -0.24219,2.4688 v 0.01 0.01 c -0.14507,1.5451 -0.25738,3.0927 -0.33398,4.6426 v 0.014 0.016 c -0.004,0.1035 -0.0372,0.3738 -0.0469,0.8164 l -0.002,0.053 v 0.051 c 0.11583,9.2301 1.44585,18.4059 3.95508,27.2891 l 1.99609,7.0684 3.52344,-6.4454 c 10.88423,-19.9133 27.76262,-35.6322 47.875,-45.1718 l -1.24414,-5.711 c -0.68461,-0.01 -1.47745,-0.057 -2.37891,-0.051 z m -10.44336,6.7363 c -14.00367,8.7732 -26.04992,20.5502 -35.09571,34.6894 -1.23495,-6.0771 -2.10086,-12.222 -2.18164,-18.4336 0.005,-0.088 0.0242,-0.2795 0.0391,-0.6523 v 0.029 c 0.072,-1.4571 0.17438,-2.9129 0.31054,-4.3652 l 0.002,-0.014 c 0.0234,-0.2385 0.047,-0.4749 0.0703,-0.7129 11.6658,-5.6356 24.10934,-9.1994 36.85547,-10.541 z"
         id="path70" /><path
         style="color:#ffffff;fill:#ffffff;stroke:none;stroke-opacity:1;-inkscape-stroke:none"
         d="m 360.20117,1711.7793 c -40.98159,0.098 -77.29493,25.7427 -91.46094,63.9902 l -0.41601,1.1211 0.4707,1.1016 c 0.0308,0.072 0.078,0.1888 0.14649,0.3476 l 0.0391,0.09 0.0449,0.088 c 2.48543,4.8605 5.33664,9.5294 8.55078,13.9531 3.24028,4.4602 6.8258,8.6596 10.72461,12.5586 3.89906,3.8989 8.1004,7.4843 12.56055,10.7246 4.46009,3.2405 9.16726,6.1274 14.08008,8.6309 4.91263,2.5029 10.01462,4.6147 15.25781,6.3183 5.24316,1.7035 10.61063,2.995 16.05664,3.8574 5.44586,0.8627 10.95356,1.295 16.4668,1.295 5.51321,0 11.01705,-0.4323 16.46289,-1.295 5.44601,-0.8624 10.81543,-2.1539 16.05859,-3.8574 5.24315,-1.7035 10.34519,-3.8154 15.25781,-6.3183 4.91279,-2.5035 9.61999,-5.3904 14.08008,-8.6309 4.46015,-3.2403 8.66149,-6.8257 12.56055,-10.7246 3.88924,-3.8892 7.46077,-8.0782 10.69336,-12.5234 l 0.0137,-0.018 0.0117,-0.018 c 2.08011,-2.9477 3.83091,-6.0046 5.51953,-8.9941 l 0.63281,-1.1211 -0.37695,-1.2325 c -12.55779,-41.0289 -50.27169,-69.3265 -93.42774,-69.3437 h -0.004 z m 0.006,6 c 40.09771,0.016 75.08392,25.9933 87.25977,63.8711 -1.44961,2.5454 -2.88604,5.0591 -4.5,7.3476 -3.04618,4.1865 -6.41003,8.1308 -10.06836,11.7891 -3.67605,3.6759 -7.63711,7.0572 -11.84375,10.1133 -4.20644,3.0562 -8.64527,5.7783 -13.27735,8.1387 -4.63208,2.36 -9.44391,4.3523 -14.38867,5.9589 -4.94515,1.6067 -10.00592,2.8236 -15.14062,3.6368 -5.13483,0.8133 -10.32606,1.2207 -15.52539,1.2207 -5.19937,0 -10.39258,-0.4074 -15.52735,-1.2207 -5.1347,-0.8132 -10.19743,-2.0301 -15.14258,-3.6368 -4.94478,-1.6066 -9.75461,-3.5989 -14.38671,-5.9589 -4.6321,-2.3604 -9.07285,-5.0825 -13.2793,-8.1387 -4.20625,-3.0558 -8.16603,-6.4378 -11.8418,-10.1133 -3.67582,-3.676 -7.05718,-7.6371 -10.11328,-11.8437 -2.8287,-3.8932 -5.33601,-8.0107 -7.57227,-12.2793 13.61948,-35.2635 47.29545,-58.7906 85.34766,-58.8848 z"
         id="path69" /><path
         id="path2-7-8-8-27-2-0-4-5-0"
         style="fill:#ffffff;stroke:none;stroke-width:0.15193;stroke-opacity:1"
         d="m 402.65374,1728.5067 a 41.125423,39.287239 0 0 1 -41.12542,39.2873 41.125423,39.287239 0 0 1 -41.12542,-39.2873 41.125423,39.287239 0 0 1 41.12542,-39.2872 41.125423,39.287239 0 0 1 41.12542,39.2872 z" /><path
         id="path3-8-2-1-8-7-4-2"
         style="fill:#ffffff;stroke:none;stroke-width:0.386461;stroke-opacity:1"
         d="m 361.67023,1682.4096 a 48.201179,48.201179 0 0 0 -48.20125,48.2012 48.201179,48.201179 0 0 0 48.20125,48.2013 48.201179,48.201179 0 0 0 48.20127,-48.2013 48.201179,48.201179 0 0 0 -48.20127,-48.2012 z m 0,11.6852 a 36.516045,36.516045 0 0 1 36.51609,36.516 36.516045,36.516045 0 0 1 -36.51609,36.5161 36.516045,36.516045 0 0 1 -36.51607,-36.5161 36.516045,36.516045 0 0 1 36.51607,-36.516 z" /><path
         id="path2-4-2-27-2-7-3-4-5"
         style="fill:#ffffff;stroke:none;stroke-width:0.386461;stroke-opacity:1"
         d="m 361.67035,1606.4568 c -32.7612,0.1181 -64.14802,13.1805 -87.31991,36.3402 l -3.35587,3.3559 c -21.4293,22.912 -33.39049,53.0871 -33.47875,84.4584 3e-5,68.5686 55.58603,124.1546 124.15453,124.1546 68.5685,0 124.15451,-55.586 124.15452,-124.1546 -10e-6,-68.5685 -55.58602,-124.1545 -124.15452,-124.1545 z m 0,14.6063 c 60.50172,0 109.54829,49.0465 109.54824,109.5482 -3.6e-4,60.5015 -49.04681,109.5476 -109.54824,109.5475 -60.50144,10e-5 -109.54787,-49.046 -109.54824,-109.5475 0.10327,-27.2759 8.91782,-52.0719 27.35499,-72.1731 l 42.44736,44.2121 c -7.52188,11.4829 -11.91013,25.2034 -11.91012,39.9557 -4e-5,40.3345 32.69767,73.0322 73.03216,73.0322 40.33449,0 73.03221,-32.6977 73.03217,-73.0322 4e-5,-40.3345 -32.69768,-73.0322 -73.03217,-73.0322 -20.22927,0 -38.53522,8.2272 -51.76092,21.5151 l -44.5578,-40.306 c 20.42972,-19.9552 46.38414,-29.6823 74.94257,-29.7198 z m 21.37615,70.4205 c 11.85827,0.014 21.88249,2.688 31.02712,10.2375 l -42.27073,14.0666 -5.24214,7.4635 a 8.8368832,8.8368832 0 0 0 -4.8904,-1.4771 8.8368832,8.8368832 0 0 0 -2.40784,0.3396 l -0.1208,-0.1872 -2.88487,-8.2493 -8.68934,-7.8598 c 9.19458,-8.8691 21.69496,-14.3339 35.47898,-14.3338 z m 38.25364,17.3546 c 9.129,9.4633 12.80082,20.6191 12.86873,33.7678 -6e-5,28.234 -22.88835,51.1223 -51.12237,51.1224 -28.23432,3e-4 -51.12306,-22.8881 -51.12312,-51.1224 2e-5,-8.496 2.08465,-16.5009 5.75165,-23.5508 l 6.68004,6.9579 8.29533,2.5361 0.38571,0.2884 a 8.8368832,8.8368832 0 0 0 -0.20304,1.773 8.8368832,8.8368832 0 0 0 8.83728,8.8373 8.8368832,8.8368832 0 0 0 8.79578,-8.2697 l 1.45451,-0.4151 8.24703,-0.014 39.79496,-21.1233 z" /></g></g><g
     inkscape:groupmode="layer"
     id="layer3"
     inkscape:label="Color Logo"
     style="display:inline"
     transform="translate(2.086707,-0.38323492)"
     sodipodi:insensitive="true"><g
       id="g56"
       transform="matrix(0.36123129,0,0,0.36123129,351.83072,-151.43079)"
       inkscape:export-filename="metranova logos/metranova_icon_light.png"
       inkscape:export-xdpi="96"
       inkscape:export-ydpi="96"
       inkscape:label="Filler BW-"
       style="display:inline"><circle
         style="display:inline;fill:#fae765;fill-opacity:1;stroke:none;stroke-width:0.290946;stroke-dasharray:none;stroke-opacity:1"
         id="path56-2"
         cx="190.51881"
         cy="551.68262"
         r="130.21675"
         inkscape:label="Background"
         transform="translate(-1.7301936e-6)" /><path
         id="path2-7-5-48-4-9-0-6-1"
         style="display:inline;fill:#6089b3;fill-opacity:1;stroke:none;stroke-width:0.386461;stroke-opacity:1"
         d="m 190.65748,449.57595 a 102.24493,102.24493 0 0 0 -45.29146,10.7786 c 15.07913,11.8859 27.09318,26.8286 35.45029,43.5819 21.83139,-16.1421 48.77486,-25.4703 77.40854,-25.2227 l -7.6e-4,-7e-4 c 1.3358,0.012 2.68173,0.083 4.02463,0.1366 a 102.24493,102.24493 0 0 0 -71.59124,-29.2737 z m -58.99802,19.0158 a 102.24493,102.24493 0 0 0 -7.813,5.8498 c -0.1097,0.095 -0.216,0.1933 -0.32533,0.2883 a 102.24493,102.24493 0 0 0 -9.99516,9.9952 c -0.0732,0.084 -0.14973,0.1655 -0.22267,0.2498 a 102.24493,102.24493 0 0 0 -8.5097,11.3682 c -0.0925,0.143 -0.18382,0.2867 -0.27551,0.4302 a 102.24493,102.24493 0 0 0 -6.829495,12.5072 c -0.0272,0.059 -0.0516,0.1196 -0.0784,0.1789 a 102.24493,102.24493 0 0 0 -4.96513,13.3125 c -0.0435,0.1468 -0.0907,0.2924 -0.13365,0.4393 a 102.24493,102.24493 0 0 0 -0.75254,3.4608 c 16.539605,-6.6819 34.303815,-9.8743 52.167025,-9.3196 h 7.6e-4 c 3.24246,0.1008 6.48831,0.3254 9.73022,0.6733 h 0.0117 0.0117 c 3.27806,0.3626 6.50959,0.8721 9.70683,1.4741 1.87821,-2.0012 3.79743,-3.9618 5.79616,-5.8377 -8.24103,-17.7357 -21.04133,-33.356 -37.52376,-45.0718 z m 126.42575,24.7253 c -26.64166,-0.2438 -51.57288,8.8198 -71.36706,24.3901 0.43883,1.2158 0.83326,2.4477 1.22732,3.6797 0.0589,-3e-4 0.11699,0 0.17587,0 h 0.0117 0.009 c 43.00248,0.013 81.41252,25.1452 99.17794,63.1087 a 102.24493,102.24493 0 0 0 1.35111,-3.6216 c 0.0437,-0.1472 0.0906,-0.2934 0.13365,-0.4408 a 102.24493,102.24493 0 0 0 3.00489,-13.8152 c 0.0257,-0.176 0.0485,-0.3523 0.0732,-0.5284 a 102.24493,102.24493 0 0 0 1.01823,-14.2349 c 0,-0.01 7.6e-4,-0.02 7.6e-4,-0.03 0,-1.7394 -0.047,-3.4765 -0.13584,-5.2135 a 102.24493,102.24493 0 0 0 -0.10721,-1.4545 c -0.0809,-1.2407 -0.16663,-2.4815 -0.29286,-3.7182 a 102.24493,102.24493 0 0 0 -0.2355,-1.9104 c -0.13131,-1.0828 -0.26131,-2.1659 -0.42722,-3.2442 a 102.24493,102.24493 0 0 0 -0.36458,-2.0984 c -0.17607,-1.0038 -0.3512,-2.0075 -0.55705,-3.0056 a 102.24493,102.24493 0 0 0 -0.48005,-2.1406 c -0.2239,-0.9796 -0.4508,-1.9585 -0.70349,-2.9309 a 102.24493,102.24493 0 0 0 -0.59931,-2.1633 c -0.26786,-0.9446 -0.54138,-1.8873 -0.83632,-2.8238 a 102.24493,102.24493 0 0 0 -0.71556,-2.1663 c -0.31352,-0.9233 -0.63684,-1.8432 -0.97673,-2.7573 a 102.24493,102.24493 0 0 0 -0.83934,-2.1768 c -0.35153,-0.8829 -0.71542,-1.7608 -1.09145,-2.6336 a 102.24493,102.24493 0 0 0 -0.94276,-2.127 c -0.40195,-0.8776 -0.81954,-1.748 -1.24619,-2.6139 a 102.24493,102.24493 0 0 0 -1.04842,-2.0825 c -0.43439,-0.8335 -0.88794,-1.6562 -1.34507,-2.4773 a 102.24493,102.24493 0 0 0 -1.1858,-2.0946 c -0.47425,-0.806 -0.9697,-1.5988 -1.46584,-2.3912 a 102.24493,102.24493 0 0 0 -1.25449,-1.9814 c -0.16303,-0.2342 -0.32532,-0.4693 -0.48534,-0.7057 -1.93443,-0.3237 -3.86544,-0.6725 -5.81429,-0.896 -0.0102,0 -0.0177,0 -0.0279,0 -3.90749,-0.431 -7.78973,-0.6585 -11.63686,-0.6937 z m -118.92296,38.5827 c -1.43451,0.01 -2.86763,0.047 -4.29862,0.1103 -15.92243,0.7087 -31.49191,4.9587 -45.836455,12.1305 -0.0809,0.8231 -0.16061,1.6459 -0.24155,2.469 a 102.24493,102.24493 0 0 0 -0.32305,4.5107 c -0.0102,0.2549 -0.0397,0.5087 -0.0453,0.7639 a 102.24493,102.24493 0 0 0 3.84197,26.5103 c 11.191525,-20.4755 28.542865,-36.6361 49.221005,-46.444 -0.77256,-0.01 -1.54611,-0.056 -2.31801,-0.051 z"
         inkscape:label="Top" /><path
         id="path38-7-83"
         style="color:#ffffff;fill:#ffb380;stroke-width:1.46064;-inkscape-stroke:none"
         d="m 189.19543,535.99005 c -39.73541,0.095 -74.91622,24.9392 -88.65442,62.0316 0.0483,0.1129 0.0941,0.2269 0.14271,0.3397 2.41651,4.7258 5.18736,9.2622 8.30741,13.5563 3.1482,4.3334 6.6313,8.4139 10.41861,12.2015 3.78756,3.7873 7.86806,7.2704 12.20146,10.4186 4.33327,3.1485 8.90692,5.9526 13.67938,8.3844 4.77237,2.4316 9.72892,4.4837 14.82291,6.1389 5.09417,1.655 10.30926,2.9083 15.59961,3.7461 5.29033,0.8379 10.63958,1.2582 15.99589,1.2582 5.35627,0 10.70478,-0.4203 15.99512,-1.2582 5.29036,-0.8378 10.50545,-2.0911 15.59961,-3.7461 5.09396,-1.6552 10.05056,-3.7073 14.82291,-6.1389 4.77245,-2.4318 9.3461,-5.2359 13.67937,-8.3844 4.3334,-3.1482 8.41391,-6.6313 12.20147,-10.4186 3.77706,-3.777 7.24839,-7.8475 10.38992,-12.1675 1.97242,-2.7952 3.67575,-5.7631 5.35762,-8.7407 -12.17927,-39.7923 -48.71287,-67.2041 -90.55954,-67.2209 z"
         inkscape:label="Bottom" /><g
         inkscape:groupmode="layer"
         id="layer4"
         inkscape:label="Center Circle Color"
         style="display:inline"
         transform="matrix(2.7683095,0,0,2.7683095,-973.97631,419.20729)"><ellipse
           style="display:inline;fill:#cccccc;fill-opacity:1;stroke:none;stroke-width:0.15193;stroke-opacity:1"
           id="path2-7-8-8-27-2-0-4-5-12"
           cy="549.71692"
           cx="190.51546"
           rx="41.125423"
           ry="39.287239"
           transform="matrix(0.36123129,0,0,0.36123129,351.83072,-151.43079)"
           inkscape:label="Blue Circle Filler" /><path
           id="path3-8-2-1-8-7-4-9"
           style="display:inline;fill:#5aa8ff;fill-opacity:1;stroke:none;stroke-width:0.386461;stroke-opacity:1"
           d="m 190.65737,503.61975 a 48.201179,48.201179 0 0 0 -48.20126,48.2013 48.201179,48.201179 0 0 0 48.20126,48.2013 48.201179,48.201179 0 0 0 48.20126,-48.2013 48.201179,48.201179 0 0 0 -48.20126,-48.2013 z m 0,11.6852 a 36.516045,36.516045 0 0 1 36.51609,36.5161 36.516045,36.516045 0 0 1 -36.51609,36.5161 36.516045,36.516045 0 0 1 -36.51608,-36.5161 36.516045,36.516045 0 0 1 36.51608,-36.5161 z"
           transform="matrix(0.36123129,0,0,0.36123129,351.83072,-151.43079)"
           inkscape:label="Blue Circle" /></g></g><g
       inkscape:groupmode="layer"
       id="g7"
       inkscape:label="Center Circle BW+"
       style="display:none"
       transform="translate(1.1092601e-6)"><ellipse
         style="display:none;fill:#ffffff;fill-opacity:1;stroke:none;stroke-width:0.15193;stroke-opacity:1"
         id="ellipse7"
         cy="549.71692"
         cx="190.51546"
         rx="41.125423"
         ry="39.287239"
         transform="matrix(0.36123129,0,0,0.36123129,351.83072,-151.43079)"
         inkscape:label="Circle Filler" /><path
         id="path7"
         style="display:inline;fill:#ffffff;fill-opacity:1;stroke:none;stroke-width:0.386461;stroke-opacity:1"
         d="m 190.65737,503.61975 a 48.201179,48.201179 0 0 0 -48.20126,48.2013 48.201179,48.201179 0 0 0 48.20126,48.2013 48.201179,48.201179 0 0 0 48.20126,-48.2013 48.201179,48.201179 0 0 0 -48.20126,-48.2013 z m 0,11.6852 a 36.516045,36.516045 0 0 1 36.51609,36.5161 36.516045,36.516045 0 0 1 -36.51609,36.5161 36.516045,36.516045 0 0 1 -36.51608,-36.5161 36.516045,36.516045 0 0 1 36.51608,-36.5161 z"
         transform="matrix(0.36123129,0,0,0.36123129,351.83072,-151.43079)"
         inkscape:label="Circle" /></g><path
       id="path2-4-2-27-2-7-3-4-8"
       style="display:inline;fill:#ffffff;fill-opacity:1;stroke:none;stroke-width:0.147506;stroke-opacity:1"
       d="M 420.56853,0.38323492 C 408.06416,0.4283115 396.08439,5.4139577 387.24009,14.253639 l -1.28088,1.280887 c -8.17918,8.745062 -12.74456,20.262358 -12.77824,32.236259 10e-6,26.17137 21.21619,47.387551 47.38756,47.387551 26.17138,0 47.38756,-21.216181 47.38756,-47.387551 0,-26.171369 -21.21618,-47.38755008 -47.38756,-47.38755008 z m 0,5.57496328 c 23.09243,-3.82e-5 41.81262,18.7201708 41.8126,41.8125868 -1.3e-4,23.092302 -18.72029,41.812359 -41.8126,41.812321 -23.09231,3.8e-5 -41.81246,-18.720019 -41.8126,-41.812321 0.0394,-10.41076 3.40377,-19.87495 10.44091,-27.547218 l 16.20139,16.874967 c -2.87096,4.382818 -4.54587,9.619725 -4.54587,15.250375 -10e-6,15.394957 12.48011,27.875123 27.87507,27.875085 15.39495,3.8e-5 27.87508,-12.480128 27.87506,-27.875085 2e-5,-15.394917 -12.48011,-27.875083 -27.87506,-27.875045 -7.72115,0 -14.7082,3.140137 -19.75622,8.211891 L 391.9643,17.301675 C 399.76196,9.6851329 409.66829,5.9724731 420.56853,5.9581982 Z m 8.1589,26.8782448 c 4.52608,0.0049 8.35215,1.025962 11.84249,3.907432 l -16.13398,5.368969 -2.00083,2.848723 a 3.3728802,3.3728802 0 0 0 -1.86658,-0.563821 3.3728802,3.3728802 0 0 0 -0.91902,0.129658 l -0.0461,-0.07146 -1.10111,-3.14861 -3.31655,-2.999945 c 3.5094,-3.385215 8.28056,-5.471031 13.54168,-5.470955 z m 14.60073,6.623902 c 3.48437,3.61201 4.88585,7.869941 4.91176,12.888564 -2e-5,10.776451 -8.73607,19.512468 -19.51249,19.512506 -10.77654,1.53e-4 -19.51276,-8.73594 -19.51278,-19.512506 10e-6,-3.242732 0.79567,-6.29806 2.1953,-8.98888 l 2.54965,2.655668 3.16619,0.968022 0.14721,0.110039 a 3.3728802,3.3728802 0 0 0 -0.0775,0.676722 3.3728802,3.3728802 0 0 0 3.37303,3.37304 3.3728802,3.3728802 0 0 0 3.3572,-3.156359 l 0.55515,-0.158474 3.14775,-0.0049 15.18903,-8.062386 z"
       inkscape:label="Clock" /></g></svg>
