<?xml version="1.0" encoding="UTF-8" standalone="no"?>
<!-- Created with Inkscape (http://www.inkscape.org/) -->

<svg
   width="0.80447549in"
   height="0.125in"
   viewBox="0 0 20.433677 3.175"
   version="1.1"
   id="svg1"
   xml:space="preserve"
   xmlns="http://www.w3.org/2000/svg"
   xmlns:svg="http://www.w3.org/2000/svg"><defs
     id="defs1" /><g
     id="layer1"
     transform="translate(-428.86901,-1207.8506)"><g
       id="g62"
       transform="matrix(0.03334001,0,0,0.03334001,425.81307,1154.8918)"><path
         style="color:#000000;-inkscape-font-specification:'Trebuchet MS Bold';fill:#fae765;fill-opacity:1;stroke:#fae765;stroke-width:3;stroke-dasharray:none;stroke-opacity:1"
         d="m 359.4461,1593.8677 -32.76544,83.318 h 19.79869 l 5.44958,-15.8641 h 23.97981 l 5.71482,15.8641 h 1.40447 18.27519 l -33.04598,-83.318 z m 301.03563,0 -32.76544,83.318 h 19.79869 l 5.44957,-15.8641 h 23.97982 l 5.71482,15.8641 h 1.40617 18.27349 l -33.04599,-83.318 z m -550.42871,1.0678 -16.561256,82.3046 H 110.9797 l 7.36415,-36.8122 13.79311,37.8256 h 7.76712 l 13.7591,-37.7304 7.06489,36.717 h 17.56105 l -0.48969,-2.4008 -16.2977,-79.9038 h -10.41795 l -15.11087,48.1126 -15.45263,-48.1126 z m 294.58456,0 v 82.3046 h 17.3536 v -44.6048 l 34.98948,45.6182 h 0.98619 7.66171 v -83.318 h -17.35191 v 43.4197 l -33.98797,-43.4197 z m 163.26777,0 30.74713,83.318 h 10.40435 l 0.49309,-1.2803 31.60071,-82.0377 h -19.27328 l -17.66817,48.8557 -16.72789,-48.8557 z m -205.73361,2.9314 h 3.36836 l 29.87317,75.3196 h -10.97906 l -5.71482,-15.8641 h -29.64702 l -5.44787,15.8641 h -11.07258 z m 301.03563,0 h 3.36836 l 29.87316,75.3196 h -10.97906 l -5.71482,-15.8641 h -29.64702 l -5.44787,15.8641 h -11.07257 z m -399.37275,0.6886 -17.3536,6.3864 v 11.0386 h -6.6228 v 14.7368 h 6.6228 v 26.9486 c 0,6.29 1.65827,11.4708 5.1401,15.1551 h 0.003 l 0.005,0.01 c 3.49033,3.6527 8.51308,5.424 14.58546,5.424 5.85722,0 10.44114,-0.5183 13.89853,-1.7105 l 1.34667,-0.4659 v -17.3281 l -3.06401,1.9248 c -2.48407,1.5605 -5.06644,2.3107 -7.90825,2.3107 -2.84863,0 -4.33894,-0.6906 -5.1333,-1.7207 -0.81995,-1.0991 -1.52011,-3.6176 -1.52011,-7.4968 v -23.0497 h 15.70428 v -14.7368 h -15.70428 z m -150.50676,0.3809 h 4.27634 l 18.41122,57.325 18.00484,-57.325 h 4.21512 l 15.15508,74.3029 h -9.35864 l -9.1733,-47.674 -17.75319,48.6891 h -2.16963 l -17.71917,-48.5939 -9.51507,47.5788 h -9.326333 z m 295.3089,0 h 3.70334 l 39.93573,51.0168 v -51.0168 h 9.35354 v 75.318 h -2.67462 l -40.96445,-53.4075 v 52.3924 h -9.35354 z m 165.01062,0 h 10.97565 l 19.48413,56.9016 20.57744,-56.9016 h 10.63729 l -29.0111,75.318 h -4.87145 z m -313.81194,5.3526 v 15.6924 h 15.70258 v 6.735 h -15.70258 v 27.0506 c 0,4.3037 0.58075,7.5836 2.32265,9.9062 l 0.005,0.01 0.007,0.01 c 1.77115,2.3123 4.76512,3.2935 8.31804,3.2935 2.4366,0 4.74474,-0.6284 6.97307,-1.5371 v 7.5988 c -2.72207,0.7313 -6.36138,1.209 -11.24601,1.209 -5.31678,0 -9.05251,-1.43 -11.6864,-4.1812 h -0.003 c -2.64074,-2.7964 -4.04339,-6.8029 -4.04339,-12.404 v -30.9495 h -1.99959 -4.62321 v -6.735 h 6.6228 v -12.2492 z m 104.01793,9.0424 -1.90097,5.8457 -10.25302,31.5157 h 24.30797 z m 301.03563,0 -1.90097,5.8457 -10.25302,31.5157 h 24.30967 z m -456.6281,1.5813 c -8.27622,0 -15.57798,3.0516 -21.49732,8.971 h -0.002 -0.002 c -5.93356,5.9716 -8.91486,13.8881 -8.91486,23.3082 0,9.5197 2.68751,17.2723 8.16161,22.8235 l 0.005,0.01 0.003,0.01 c 5.49586,5.4959 13.02682,8.2228 22.14005,8.2228 9.60173,0 17.1001,-1.9426 22.30328,-6.1603 l 1.25655,-1.0185 -7.16181,-14.1009 -1.94858,1.9486 c -2.7163,2.7163 -6.73155,4.1692 -12.47365,4.1692 -4.53288,0 -7.86215,-1.1371 -10.32613,-3.2969 -2.01013,-1.762 -3.22911,-4.0809 -3.74583,-7.1261 h 40.18739 l 0.35197,-1.5592 c 0.76338,-3.3807 1.16983,-5.9217 1.16983,-7.8641 0,-8.093 -2.73795,-15.021 -8.1259,-20.3326 -5.41304,-5.3362 -12.68718,-8 -21.3817,-8 z m 109.81778,0 c -4.9278,0 -9.29588,1.3118 -12.90214,3.8615 v -2.7937 h -17.3536 v 61.2052 h 17.3536 v -34.5814 c 0,-3.6624 1.02165,-6.556 3.09461,-9.0049 h 0.003 c 2.14503,-2.4904 4.26766,-3.5197 6.75883,-3.5197 2.48202,0 4.67323,0.6554 6.75372,2.0217 l 1.88907,1.2395 1.0015,-2.0234 6.49697,-13.118 -1.63232,-0.9352 c -2.89117,-1.6582 -6.70262,-2.3482 -11.46364,-2.3482 z m -109.81778,3.9992 c 7.89911,0 13.94416,2.286 18.57276,6.8489 4.65368,4.5877 6.93566,10.2659 6.93566,17.4846 0,1.0358 -0.39838,3.2043 -0.83317,5.424 h -41.262 l 0.11562,2.1084 c 0.27112,4.9578 2.06732,9.1227 5.37816,12.0248 3.30461,2.8966 7.73947,4.2882 12.96334,4.2882 5.31352,0 9.75151,-1.2449 13.198,-3.6914 l 3.26804,6.4324 c -4.20203,2.8208 -10.2323,4.4226 -18.44182,4.4226 -8.33196,0 -14.61793,-2.3631 -19.30559,-7.0479 -4.63543,-4.7037 -7.00368,-11.2297 -7.00368,-20.0096 0,-8.5954 2.57331,-15.275 7.74672,-20.4839 5.26177,-5.2618 11.3476,-7.8011 18.66796,-7.8011 z m 109.81778,0 c 3.33847,0 5.75377,0.5028 7.68381,1.1987 l -3.80875,7.6923 c -2.17216,-1.0356 -4.46806,-1.7275 -6.92036,-1.7275 -3.70332,0 -7.09742,1.7829 -9.79392,4.9157 l -0.005,0.01 -0.005,0.01 c -2.69273,3.175 -4.0536,7.1519 -4.0536,11.6031 v 30.5822 h -9.35183 v -53.2052 h 9.35183 v 8.4898 l 3.49419,-3.9261 c 3.37419,-3.7919 7.66504,-5.6332 13.40884,-5.6332 z m -109.60353,7.1635 c -4.17617,0 -7.82452,1.1943 -10.59138,3.6387 -2.76686,2.4444 -4.58025,6.0143 -5.56859,10.4809 l -0.53901,2.4331 h 2.49099 30.32886 l -0.24485,-2.2206 c -0.49897,-4.5099 -2.05623,-8.1858 -4.81365,-10.6781 -2.75742,-2.4923 -6.5614,-3.654 -11.06237,-3.654 z m 155.37822,0.1853 6.6466,20.4329 h -13.29321 z m 301.03563,0 6.6466,20.4329 h -13.29321 z m -456.41385,3.8156 c 3.83145,0 6.50755,0.9302 8.37925,2.6219 1.4466,1.3075 2.36412,3.3748 2.96708,5.9291 h -22.75047 c 0.87434,-2.5187 1.97333,-4.6004 3.46188,-5.9155 1.96909,-1.7396 4.49818,-2.6355 7.94226,-2.6355 z"
         id="path62" /><path
         style="color:#000000;-inkscape-font-specification:'Trebuchet MS Bold';fill:#fae765;fill-opacity:1;stroke-width:0.870571;-inkscape-stroke:none"
         d="m 175.83977,1675.2394 h -13.46008 l -8.11878,-42.1963 -15.75684,43.2111 h -4.96741 l -15.75684,-43.2111 -8.43926,42.1963 H 95.933898 l 15.756842,-78.3035 h 7.37099 l 16.93193,52.7187 16.55803,-52.7187 h 7.31759 z m 58.80773,-24.57 h -40.86095 q 0.37388,6.8369 4.70034,10.6292 4.32645,3.7923 11.64404,3.7923 9.13363,0 13.88738,-4.7537 l 5.18106,10.2019 q -7.05052,5.7151 -21.04473,5.7151 -13.08619,0 -20.72424,-7.638 -7.58465,-7.6915 -7.58465,-21.4186 0,-13.5135 8.33243,-21.8994 8.38584,-8.3858 20.08329,-8.3858 12.44523,0 19.97647,7.4244 7.53123,7.4244 7.53123,18.9082 0,2.457 -1.12167,7.4244 z m -40.38024,-10.0416 h 28.09525 q -1.38874,-12.5521 -13.88738,-12.5521 -11.43039,0 -14.20787,12.5521 z m 54.21422,-11.9111 h -6.62322 v -10.7361 h 6.62322 v -11.644 l 13.35325,-4.914 v 16.558 h 15.70342 v 10.7361 h -15.70342 v 25.0507 q 0,6.1425 1.92286,8.7063 1.92287,2.5104 6.73004,2.5104 4.80717,0 8.97339,-2.6172 v 12.285 q -4.64693,1.6023 -13.24643,1.6023 -8.54608,0 -13.1396,-4.8071 -4.59351,-4.8606 -4.59351,-13.7806 z m 74.40433,1.7092 q -3.57867,-2.3502 -7.85172,-2.3502 -4.64693,0 -8.27901,4.2196 -3.57868,4.2197 -3.57868,10.3087 v 32.582 h -13.35325 v -57.2054 h 13.35325 v 5.2345 q 5.60837,-6.3027 14.90224,-6.3027 6.83686,0 10.46895,2.0831 z m 60.14306,44.7601 -5.7152,-15.8637 h -26.81333 l -5.44813,15.8637 h -15.43636 l 31.1932,-79.3183 h 6.08909 l 31.46026,79.3183 z m -19.17528,-55.3893 -9.40069,28.8964 h 18.80138 z m 94.11373,56.4575 -37.97665,-49.5138 v 48.499 h -13.35325 v -78.3035 h 6.67663 l 36.9618,47.2171 v -47.2171 h 13.35326 v 79.3183 z m 149.7167,0 h -7.63807 l -29.27033,-79.3183 h 15.27613 l 18.10701,52.8789 19.12186,-52.8789 h 14.95564 z m 76.38061,-1.0682 -5.7152,-15.8637 H 651.5361 l -5.44813,15.8637 h -15.43636 l 31.1932,-79.3183 h 6.08909 l 31.46026,79.3183 z m -19.17528,-55.3893 -9.40069,28.8964 h 18.80138 z"
         id="path61" /><g
         id="g59-9-0-6"
         transform="matrix(0.36566313,0,0,0.36566313,419.95312,1103.1615)"><circle
           style="fill:#fae765;fill-opacity:1;stroke:none;stroke-width:0.290946;stroke-dasharray:none;stroke-opacity:1"
           id="path56-9-1-9"
           cx="276.98596"
           cy="1457.351"
           r="130.21675" /><path
           id="path2-7-5-48-4-9-0-6-5-4-9"
           style="fill:#6089b3;fill-opacity:1;stroke:none;stroke-width:0.386461;stroke-opacity:1"
           d="m 277.12462,1355.2443 a 102.24493,102.24493 0 0 0 -45.29146,10.7786 c 15.07913,11.8859 27.09318,26.8286 35.45029,43.5819 21.83139,-16.1421 48.77486,-25.4703 77.40854,-25.2227 l -7.6e-4,-7e-4 c 1.3358,0.012 2.68173,0.083 4.02463,0.1366 a 102.24493,102.24493 0 0 0 -71.59124,-29.2737 z m -58.99802,19.0158 a 102.24493,102.24493 0 0 0 -7.813,5.8498 c -0.1097,0.095 -0.216,0.1933 -0.32533,0.2883 a 102.24493,102.24493 0 0 0 -9.99516,9.9952 c -0.0732,0.084 -0.14973,0.1655 -0.22267,0.2498 a 102.24493,102.24493 0 0 0 -8.5097,11.3682 c -0.0925,0.143 -0.18382,0.2867 -0.27551,0.4302 a 102.24493,102.24493 0 0 0 -6.82949,12.5072 c -0.0272,0.059 -0.0516,0.1196 -0.0784,0.1789 a 102.24493,102.24493 0 0 0 -4.96513,13.3125 c -0.0435,0.1468 -0.0907,0.2924 -0.13365,0.4393 a 102.24493,102.24493 0 0 0 -0.75254,3.4608 c 16.5396,-6.6819 34.30381,-9.8743 52.16702,-9.3196 h 7.6e-4 c 3.24246,0.1008 6.48831,0.3254 9.73022,0.6733 h 0.0117 0.0117 c 3.27806,0.3626 6.50959,0.8721 9.70683,1.4741 1.87821,-2.0012 3.79743,-3.9618 5.79616,-5.8377 -8.24103,-17.7357 -21.04133,-33.356 -37.52376,-45.0718 z m 126.42575,24.7253 c -26.64166,-0.2438 -51.57288,8.8198 -71.36706,24.3901 0.43883,1.2158 0.83326,2.4477 1.22732,3.6797 0.0589,-3e-4 0.11699,0 0.17587,0 h 0.0117 0.009 c 43.00248,0.013 81.41252,25.1452 99.17794,63.1087 a 102.24493,102.24493 0 0 0 1.35111,-3.6216 c 0.0437,-0.1472 0.0906,-0.2934 0.13365,-0.4408 a 102.24493,102.24493 0 0 0 3.00489,-13.8152 c 0.0257,-0.176 0.0485,-0.3523 0.0732,-0.5284 a 102.24493,102.24493 0 0 0 1.01823,-14.2349 c 0,-0.01 7.6e-4,-0.02 7.6e-4,-0.03 0,-1.7394 -0.047,-3.4765 -0.13584,-5.2135 a 102.24493,102.24493 0 0 0 -0.10721,-1.4545 c -0.0809,-1.2407 -0.16663,-2.4815 -0.29286,-3.7182 a 102.24493,102.24493 0 0 0 -0.2355,-1.9104 c -0.13131,-1.0828 -0.26131,-2.1659 -0.42722,-3.2442 a 102.24493,102.24493 0 0 0 -0.36458,-2.0984 c -0.17607,-1.0038 -0.3512,-2.0075 -0.55705,-3.0056 a 102.24493,102.24493 0 0 0 -0.48005,-2.1406 c -0.2239,-0.9796 -0.4508,-1.9585 -0.70349,-2.9309 a 102.24493,102.24493 0 0 0 -0.59931,-2.1633 c -0.26786,-0.9446 -0.54138,-1.8873 -0.83632,-2.8238 a 102.24493,102.24493 0 0 0 -0.71556,-2.1663 c -0.31352,-0.9233 -0.63684,-1.8432 -0.97673,-2.7573 a 102.24493,102.24493 0 0 0 -0.83934,-2.1768 c -0.35153,-0.8829 -0.71542,-1.7608 -1.09145,-2.6336 a 102.24493,102.24493 0 0 0 -0.94276,-2.127 c -0.40195,-0.8776 -0.81954,-1.748 -1.24619,-2.6139 a 102.24493,102.24493 0 0 0 -1.04842,-2.0825 c -0.43439,-0.8335 -0.88794,-1.6562 -1.34507,-2.4773 a 102.24493,102.24493 0 0 0 -1.1858,-2.0946 c -0.47425,-0.806 -0.9697,-1.5988 -1.46584,-2.3912 a 102.24493,102.24493 0 0 0 -1.25449,-1.9814 c -0.16303,-0.2342 -0.32532,-0.4693 -0.48534,-0.7057 -1.93443,-0.3237 -3.86544,-0.6725 -5.81429,-0.896 -0.0102,0 -0.0177,0 -0.0279,0 -3.90749,-0.431 -7.78973,-0.6585 -11.63686,-0.6937 z m -118.92296,38.5827 c -1.43451,0.01 -2.86763,0.047 -4.29862,0.1103 -15.92243,0.7087 -31.49191,4.9587 -45.83645,12.1305 -0.0809,0.8231 -0.16061,1.6459 -0.24155,2.469 a 102.24493,102.24493 0 0 0 -0.32305,4.5107 c -0.0102,0.2549 -0.0397,0.5087 -0.0453,0.7639 a 102.24493,102.24493 0 0 0 3.84197,26.5103 c 11.19152,-20.4755 28.54286,-36.6361 49.221,-46.444 -0.77256,-0.01 -1.54611,-0.056 -2.31801,-0.051 z" /><path
           id="path38-7-9-7-5"
           style="color:#000000;fill:#ffb380;stroke-width:1.46064;-inkscape-stroke:none"
           d="m 275.66257,1441.6584 c -39.73541,0.095 -74.91622,24.9392 -88.65442,62.0316 0.0483,0.1129 0.0941,0.2269 0.14271,0.3397 2.41651,4.7258 5.18736,9.2622 8.30741,13.5563 3.1482,4.3334 6.6313,8.4139 10.41861,12.2015 3.78756,3.7873 7.86806,7.2704 12.20146,10.4186 4.33327,3.1485 8.90692,5.9526 13.67938,8.3844 4.77237,2.4316 9.72892,4.4837 14.82291,6.1389 5.09417,1.655 10.30926,2.9083 15.59961,3.7461 5.29033,0.8379 10.63958,1.2582 15.99589,1.2582 5.35627,0 10.70478,-0.4203 15.99512,-1.2582 5.29036,-0.8378 10.50545,-2.0911 15.59961,-3.7461 5.09396,-1.6552 10.05056,-3.7073 14.82291,-6.1389 4.77245,-2.4318 9.3461,-5.2359 13.67937,-8.3844 4.3334,-3.1482 8.41391,-6.6313 12.20147,-10.4186 3.77706,-3.777 7.24839,-7.8475 10.38992,-12.1675 1.97242,-2.7952 3.67575,-5.7631 5.35762,-8.7407 -12.17927,-39.7923 -48.71287,-67.2041 -90.55954,-67.2209 z" /><ellipse
           style="fill:#cccccc;fill-opacity:1;stroke:none;stroke-width:0.15193;stroke-opacity:1"
           id="path2-7-8-8-27-2-0-4-5-2-2-5"
           cy="1455.3853"
           cx="276.9826"
           rx="41.125423"
           ry="39.287239" /><path
           id="path3-8-2-1-8-7-4-0-1-7"
           style="fill:#5aa8ff;fill-opacity:1;stroke:none;stroke-width:0.386461;stroke-opacity:1"
           d="m 277.12451,1409.2881 a 48.201179,48.201179 0 0 0 -48.20126,48.2013 48.201179,48.201179 0 0 0 48.20126,48.2013 48.201179,48.201179 0 0 0 48.20126,-48.2013 48.201179,48.201179 0 0 0 -48.20126,-48.2013 z m 0,11.6852 a 36.516045,36.516045 0 0 1 36.51609,36.5161 36.516045,36.516045 0 0 1 -36.51609,36.5161 36.516045,36.516045 0 0 1 -36.51608,-36.5161 36.516045,36.516045 0 0 1 36.51608,-36.5161 z" /><path
           id="path2-4-2-27-2-7-3-4-69-0-8"
           style="fill:#041546;fill-opacity:1;stroke:none;stroke-width:0.386461;stroke-opacity:1"
           d="m 277.12462,1333.3354 c -32.7612,0.1181 -64.14801,13.1804 -87.31991,36.3402 l -3.35587,3.3559 c -21.42929,22.9119 -33.39049,53.087 -33.47874,84.4584 3e-5,68.5685 55.58602,124.1545 124.15452,124.1545 68.5685,0 124.15451,-55.586 124.15453,-124.1545 -2e-5,-68.5685 -55.58603,-124.1545 -124.15453,-124.1545 z m 0,14.6063 c 60.50173,-10e-5 109.5483,49.0465 109.54824,109.5482 -3.5e-4,60.5014 -49.0468,109.5476 -109.54824,109.5475 -60.50143,10e-5 -109.54787,-49.0461 -109.54823,-109.5475 0.10326,-27.276 8.91781,-52.072 27.35498,-72.1732 l 42.44736,44.2121 c -7.52188,11.4829 -11.91013,25.2035 -11.91011,39.9557 -5e-5,40.3345 32.69766,73.0323 73.03216,73.0322 40.33448,1e-4 73.03221,-32.6977 73.03216,-73.0322 5e-5,-40.3344 -32.69768,-73.0322 -73.03216,-73.0321 -20.22927,0 -38.53522,8.2271 -51.76092,21.515 l -44.5578,-40.306 c 20.42972,-19.9552 46.38414,-29.6823 74.94256,-29.7197 z m 21.37616,70.4205 c 11.85826,0.013 21.88249,2.688 31.02711,10.2374 l -42.27072,14.0666 -5.24214,7.4636 a 8.8368832,8.8368832 0 0 0 -4.89041,-1.4772 8.8368832,8.8368832 0 0 0 -2.40784,0.3397 l -0.12079,-0.1872 -2.88487,-8.2493 -8.68934,-7.8598 c 9.19458,-8.8692 21.69495,-14.334 35.47897,-14.3338 z m 38.25364,17.3545 c 9.129,9.4634 12.80082,20.6191 12.86872,33.7678 -6e-5,28.2341 -22.88834,51.1223 -51.12236,51.1224 -28.23432,4e-4 -51.12306,-22.888 -51.12312,-51.1224 1e-5,-8.4959 2.08464,-16.5008 5.75164,-23.5507 l 6.68004,6.9578 8.29534,2.5362 0.38571,0.2883 a 8.8368832,8.8368832 0 0 0 -0.20304,1.773 8.8368832,8.8368832 0 0 0 8.83727,8.8373 8.8368832,8.8368832 0 0 0 8.79578,-8.2696 l 1.45451,-0.4152 8.24703,-0.013 39.79497,-21.1233 z" /></g></g></g></svg>
