<?xml version="1.0" encoding="UTF-8" standalone="no"?>
<!-- Generator: Adobe Illustrator 27.2.0, SVG Export Plug-In . SVG Version: 6.00 Build 0)  -->

<svg
   version="1.1"
   id="Layer_1"
   x="0px"
   y="0px"
   viewBox="0 0 772.42999 226.53999"
   enable-background="new 0 0 800 400"
   xml:space="preserve"
   sodipodi:docname="esnet.svg"
   width="772.42999"
   height="226.53999"
   inkscape:version="1.3.2 (091e20e, 2023-11-25)"
   xmlns:inkscape="http://www.inkscape.org/namespaces/inkscape"
   xmlns:sodipodi="http://sodipodi.sourceforge.net/DTD/sodipodi-0.dtd"
   xmlns="http://www.w3.org/2000/svg"
   xmlns:svg="http://www.w3.org/2000/svg"><defs
   id="defs30" /><sodipodi:namedview
   id="namedview30"
   pagecolor="#ffffff"
   bordercolor="#666666"
   borderopacity="1.0"
   inkscape:showpageshadow="2"
   inkscape:pageopacity="0.0"
   inkscape:pagecheckerboard="0"
   inkscape:deskcolor="#d1d1d1"
   inkscape:zoom="0.436875"
   inkscape:cx="159.08441"
   inkscape:cy="115.59371"
   inkscape:window-width="1536"
   inkscape:window-height="746"
   inkscape:window-x="38"
   inkscape:window-y="205"
   inkscape:window-maximized="0"
   inkscape:current-layer="Layer_1" />
<g
   id="g30"
   transform="translate(-15.150002,-89.629997)">
	<circle
   fill="#6c6d6f"
   cx="128.42"
   cy="202.89999"
   r="113.27"
   id="circle1" />
	<path
   opacity="0.75"
   fill="#62c3db"
   d="M 210.4,281.04 C 223.84,188.13 181.75,127.42 85.17,98.26 c -13.13,4.94 -26.36,13.78 -38.5,26.16 84.36,1.59 164.1,78.25 151.89,167.38 4.21,-3.25 8.16,-6.85 11.84,-10.76 z"
   id="path1" />
	<path
   opacity="0.75"
   fill="#62c3db"
   d="M 230.94,251.1 C 146.89,280 67.3,256.01 16.24,187.24 c 2.06,-13.53 5.77,-26.41 13.73,-40.34 45.69,71.75 109.5,112.62 204.8,95.11 -1.58,4 -2.58,6.55 -3.83,9.09 z"
   id="path2" />
	<path
   opacity="0.75"
   fill="#62c3db"
   d="M 231.63,156.29 C 194.82,142.56 86.71,136.51 22.85,243.94 c 4.87,12.43 13.73,27.75 25.42,38.85 25.53,-72.4 98.38,-121.33 189.1,-110.98 -1.06,-4.08 -3.52,-11.18 -5.74,-15.52 z"
   id="path3" />
	<g
   id="g8">
		<path
   fill="#6c6d6f"
   d="m 369.09,134.65 h -41.92 v 27.62 h 39.46 v 19.4 h -39.46 v 31.56 h 43.57 v 19.4 H 303.5 V 115.26 h 65.6 v 19.39 z"
   id="path4" />
		<path
   fill="#6c6d6f"
   d="m 401.64,199.43 c 0,2.74 0.22,5.23 0.66,7.48 0.44,2.25 1.26,4.14 2.47,5.67 1.21,1.54 2.82,2.74 4.85,3.62 2.03,0.88 4.58,1.31 7.64,1.31 3.62,0 6.88,-1.18 9.78,-3.53 2.9,-2.36 4.36,-6 4.36,-10.93 0,-2.63 -0.36,-4.9 -1.07,-6.82 -0.71,-1.92 -1.89,-3.64 -3.54,-5.18 -1.64,-1.53 -3.81,-2.93 -6.49,-4.19 -2.69,-1.26 -6,-2.55 -9.95,-3.86 -5.26,-1.75 -9.81,-3.67 -13.65,-5.75 -3.84,-2.08 -7.04,-4.52 -9.62,-7.32 -2.58,-2.79 -4.47,-6.03 -5.67,-9.7 -1.21,-3.67 -1.81,-7.92 -1.81,-12.74 0,-11.62 3.23,-20.27 9.7,-25.98 6.47,-5.7 15.34,-8.55 26.63,-8.55 5.26,0 10.11,0.58 14.55,1.73 4.44,1.15 8.27,3.02 11.51,5.59 3.23,2.58 5.75,5.86 7.56,9.86 1.81,4 2.71,8.8 2.71,14.39 v 3.29 h -22.69 c 0,-5.59 -0.99,-9.89 -2.96,-12.91 -1.97,-3.01 -5.26,-4.52 -9.86,-4.52 -2.63,0 -4.82,0.39 -6.58,1.15 -1.75,0.77 -3.15,1.78 -4.19,3.04 -1.04,1.26 -1.75,2.71 -2.14,4.36 -0.39,1.64 -0.58,3.34 -0.58,5.1 0,3.62 0.77,6.66 2.3,9.12 1.53,2.47 4.82,4.74 9.86,6.82 l 18.25,7.89 c 4.49,1.97 8.16,4.03 11.01,6.17 2.85,2.14 5.12,4.44 6.82,6.9 1.7,2.47 2.88,5.18 3.54,8.14 0.66,2.96 0.99,6.25 0.99,9.86 0,12.39 -3.59,21.4 -10.77,27.04 -7.18,5.65 -17.18,8.47 -30,8.47 -13.37,0 -22.93,-2.9 -28.69,-8.71 -5.75,-5.81 -8.63,-14.14 -8.63,-24.99 v -4.77 h 23.67 v 3.45 z"
   id="path5" />
		<path
   fill="#6c6d6f"
   d="m 488.94,144.19 v 10.36 h 0.33 c 2.41,-4.38 5.53,-7.59 9.37,-9.62 3.83,-2.03 8.22,-3.04 13.15,-3.04 7.23,0 12.79,1.97 16.69,5.92 3.89,3.95 5.84,10.36 5.84,19.23 v 65.6 h -22.69 v -60.99 c 0,-4.6 -0.77,-7.81 -2.3,-9.62 -1.54,-1.81 -4,-2.71 -7.4,-2.71 -8,0 -12,4.88 -12,14.63 v 58.69 h -22.69 v -88.45 z"
   id="path6" />
		<path
   fill="#6c6d6f"
   d="m 568.84,198.93 c 0,2.63 0.19,5.18 0.58,7.65 0.38,2.47 1.01,4.66 1.89,6.58 0.88,1.92 2.03,3.45 3.45,4.6 1.42,1.15 3.18,1.73 5.26,1.73 3.83,0 6.63,-1.37 8.38,-4.11 1.75,-2.74 2.96,-6.9 3.62,-12.49 h 20.39 c -0.44,10.3 -3.18,18.14 -8.22,23.51 -5.04,5.37 -12.99,8.06 -23.84,8.06 -8.22,0 -14.63,-1.37 -19.24,-4.11 -4.6,-2.74 -8,-6.35 -10.19,-10.85 -2.19,-4.49 -3.53,-9.54 -4.03,-15.12 -0.49,-5.59 -0.74,-11.18 -0.74,-16.77 0,-5.92 0.41,-11.62 1.23,-17.1 0.82,-5.48 2.47,-10.36 4.93,-14.63 2.47,-4.27 6,-7.67 10.6,-10.19 4.6,-2.52 10.74,-3.78 18.41,-3.78 6.58,0 11.97,1.07 16.19,3.21 4.22,2.14 7.53,5.15 9.95,9.04 2.41,3.89 4.05,8.61 4.93,14.14 0.88,5.54 1.32,11.7 1.32,18.49 v 5.1 h -44.88 v 7.04 z m 22.52,-29.51 c -0.33,-2.57 -0.9,-4.77 -1.73,-6.58 -0.82,-1.81 -1.97,-3.18 -3.45,-4.11 -1.48,-0.93 -3.37,-1.4 -5.67,-1.4 -2.3,0 -4.19,0.52 -5.67,1.56 -1.48,1.04 -2.66,2.41 -3.53,4.11 -0.88,1.7 -1.51,3.59 -1.89,5.67 -0.39,2.08 -0.58,4.17 -0.58,6.25 v 3.45 h 23.18 c -0.11,-3.38 -0.33,-6.37 -0.66,-8.95 z"
   id="path7" />
		<path
   fill="#6c6d6f"
   d="m 653.17,118.87 v 25.32 h 13.15 v 15.45 h -13.15 v 47.84 c 0,3.51 0.52,6 1.56,7.48 1.04,1.48 3.21,2.22 6.49,2.22 0.88,0 1.75,-0.03 2.63,-0.08 0.88,-0.05 1.7,-0.14 2.47,-0.25 v 15.78 c -2.52,0 -4.96,0.08 -7.32,0.25 -2.36,0.16 -4.85,0.25 -7.48,0.25 -4.38,0 -7.97,-0.3 -10.77,-0.9 -2.8,-0.6 -4.93,-1.81 -6.41,-3.62 -1.48,-1.81 -2.49,-4.19 -3.04,-7.15 -0.55,-2.96 -0.82,-6.68 -0.82,-11.18 v -50.64 h -11.51 v -15.45 h 11.51 v -25.32 z"
   id="path8" />
	</g>
	<g
   id="g29">
		<path
   fill="#6c6d6f"
   d="m 304.56,269.23 h 15.82 v 3.71 h -11.57 v 6.07 h 10.96 v 3.58 h -10.96 v 6.75 h 12.18 v 3.78 h -16.43 z"
   id="path9" />
		<path
   fill="#6c6d6f"
   d="m 325.14,269.23 h 5.63 l 11.1,17.88 h 0.07 v -17.88 h 4.25 v 23.88 h -5.4 l -11.33,-18.45 h -0.07 v 18.45 h -4.25 z"
   id="path10" />
		<path
   fill="#6c6d6f"
   d="m 351.45,269.23 h 15.82 v 3.71 H 355.7 v 6.07 h 10.96 v 3.58 H 355.7 v 6.75 h 12.18 v 3.78 h -16.43 z"
   id="path11" />
		<path
   fill="#6c6d6f"
   d="m 372.03,269.23 h 8.3 c 1.12,0 2.21,0.12 3.27,0.35 1.06,0.24 2,0.62 2.82,1.16 0.82,0.54 1.48,1.25 1.97,2.13 0.49,0.88 0.74,1.95 0.74,3.2 0,1.73 -0.49,3.14 -1.47,4.23 -0.98,1.09 -2.31,1.83 -4,2.21 l 6.38,10.59 h -5.13 L 379.38,283 h -3.1 v 10.12 h -4.25 z m 7.72,10.29 c 0.61,0 1.21,-0.04 1.82,-0.13 0.61,-0.09 1.15,-0.26 1.64,-0.51 0.48,-0.25 0.88,-0.6 1.2,-1.06 0.31,-0.46 0.47,-1.05 0.47,-1.77 0,-0.65 -0.15,-1.19 -0.44,-1.6 -0.29,-0.42 -0.66,-0.75 -1.11,-1 -0.45,-0.25 -0.96,-0.42 -1.53,-0.51 -0.57,-0.09 -1.13,-0.14 -1.67,-0.14 h -3.85 v 6.71 h 3.47 z"
   id="path12" />
		<path
   fill="#6c6d6f"
   d="m 414.16,291.87 c -1.21,0.58 -2.55,1.04 -4,1.37 -1.45,0.33 -3.12,0.49 -5.01,0.49 -1.93,0 -3.7,-0.31 -5.3,-0.93 -1.6,-0.62 -2.97,-1.48 -4.12,-2.6 -1.15,-1.11 -2.04,-2.44 -2.68,-3.98 -0.64,-1.54 -0.96,-3.24 -0.96,-5.11 0,-1.91 0.33,-3.64 1,-5.18 0.66,-1.54 1.57,-2.85 2.73,-3.93 1.16,-1.08 2.52,-1.91 4.1,-2.5 1.57,-0.58 3.28,-0.88 5.13,-0.88 1.91,0 3.66,0.28 5.25,0.83 1.58,0.55 2.86,1.28 3.83,2.18 l -2.93,3.17 c -0.61,-0.67 -1.46,-1.25 -2.55,-1.72 -1.09,-0.47 -2.28,-0.71 -3.56,-0.71 -1.26,0 -2.4,0.23 -3.42,0.67 -1.02,0.45 -1.9,1.07 -2.61,1.86 -0.72,0.79 -1.28,1.71 -1.67,2.77 -0.39,1.06 -0.59,2.2 -0.59,3.44 0,1.28 0.2,2.46 0.59,3.53 0.39,1.07 0.96,2 1.69,2.78 0.73,0.79 1.62,1.4 2.67,1.84 1.05,0.44 2.23,0.66 3.56,0.66 1.82,0 3.41,-0.28 4.76,-0.84 V 283 h -5.03 v -3.51 h 9.14 v 12.38 z"
   id="path13" />
		<path
   fill="#6c6d6f"
   d="m 423.47,282.76 -8.97,-13.53 h 5.19 l 6,10.05 6.07,-10.05 h 4.92 l -8.97,13.53 v 10.36 h -4.25 v -10.36 z"
   id="path14" />
		<path
   fill="#6c6d6f"
   d="m 458.48,274.23 c -0.45,-0.58 -1.08,-1.07 -1.91,-1.47 -0.82,-0.39 -1.65,-0.59 -2.48,-0.59 -0.5,0 -0.99,0.06 -1.48,0.19 -0.5,0.12 -0.94,0.31 -1.35,0.57 -0.4,0.26 -0.74,0.6 -1,1.01 -0.26,0.42 -0.39,0.92 -0.39,1.5 0,0.54 0.11,1 0.34,1.38 0.23,0.38 0.53,0.71 0.93,0.98 0.4,0.27 0.87,0.51 1.43,0.71 0.56,0.2 1.18,0.4 1.86,0.61 0.76,0.25 1.56,0.53 2.38,0.84 0.82,0.31 1.57,0.73 2.26,1.25 0.69,0.52 1.25,1.17 1.69,1.96 0.44,0.79 0.66,1.77 0.66,2.93 0,1.28 -0.24,2.4 -0.71,3.36 -0.47,0.96 -1.1,1.75 -1.89,2.38 -0.79,0.63 -1.71,1.1 -2.77,1.42 -1.06,0.31 -2.17,0.47 -3.34,0.47 -1.55,0 -3.07,-0.29 -4.55,-0.86 -1.48,-0.57 -2.7,-1.42 -3.64,-2.55 l 3.04,-2.83 c 0.58,0.81 1.37,1.45 2.34,1.92 0.98,0.47 1.94,0.71 2.88,0.71 0.49,0 1,-0.06 1.52,-0.19 0.52,-0.12 0.98,-0.33 1.4,-0.62 0.42,-0.29 0.75,-0.66 1.01,-1.1 0.26,-0.44 0.39,-0.98 0.39,-1.64 0,-0.63 -0.15,-1.15 -0.44,-1.57 -0.29,-0.42 -0.69,-0.78 -1.18,-1.08 -0.5,-0.3 -1.08,-0.57 -1.75,-0.79 -0.67,-0.22 -1.38,-0.46 -2.12,-0.71 -0.72,-0.22 -1.44,-0.49 -2.16,-0.81 -0.72,-0.32 -1.37,-0.73 -1.94,-1.25 -0.57,-0.52 -1.04,-1.15 -1.4,-1.91 -0.36,-0.75 -0.54,-1.69 -0.54,-2.82 0,-1.21 0.25,-2.26 0.76,-3.14 0.51,-0.88 1.17,-1.6 1.99,-2.18 0.82,-0.57 1.75,-1 2.8,-1.28 1.05,-0.28 2.11,-0.42 3.19,-0.42 1.21,0 2.45,0.21 3.69,0.64 1.25,0.43 2.33,1.07 3.26,1.92 z"
   id="path15" />
		<path
   fill="#6c6d6f"
   d="m 482.91,274.83 c -0.63,-0.85 -1.45,-1.48 -2.46,-1.87 -1.01,-0.39 -2,-0.59 -2.97,-0.59 -1.24,0 -2.36,0.23 -3.37,0.67 -1.01,0.45 -1.88,1.07 -2.61,1.86 -0.73,0.79 -1.29,1.71 -1.69,2.77 -0.39,1.06 -0.59,2.2 -0.59,3.44 0,1.3 0.19,2.5 0.57,3.58 0.38,1.08 0.93,2.01 1.64,2.78 0.71,0.77 1.56,1.38 2.55,1.8 0.99,0.43 2.1,0.64 3.34,0.64 1.28,0 2.42,-0.25 3.41,-0.76 0.99,-0.51 1.79,-1.17 2.4,-2.01 l 3.41,2.4 c -1.06,1.33 -2.35,2.36 -3.88,3.09 -1.53,0.73 -3.32,1.1 -5.36,1.1 -1.87,0 -3.58,-0.31 -5.14,-0.93 -1.56,-0.62 -2.91,-1.48 -4.03,-2.6 -1.12,-1.11 -2,-2.44 -2.63,-3.98 -0.63,-1.54 -0.94,-3.24 -0.94,-5.11 0,-1.91 0.33,-3.64 1,-5.18 0.66,-1.54 1.57,-2.85 2.73,-3.93 1.16,-1.08 2.52,-1.91 4.1,-2.5 1.57,-0.58 3.28,-0.88 5.13,-0.88 0.76,0 1.56,0.07 2.4,0.22 0.83,0.15 1.63,0.37 2.39,0.67 0.76,0.3 1.48,0.68 2.16,1.13 0.67,0.45 1.25,0.99 1.72,1.62 z"
   id="path16" />
		<path
   fill="#6c6d6f"
   d="m 489.15,269.23 h 4.25 v 23.88 h -4.25 z"
   id="path17" />
		<path
   fill="#6c6d6f"
   d="m 498.66,269.23 h 15.82 v 3.71 h -11.57 v 6.07 h 10.96 v 3.58 h -10.96 v 6.75 h 12.18 v 3.78 h -16.43 z"
   id="path18" />
		<path
   fill="#6c6d6f"
   d="m 519.24,269.23 h 5.63 l 11.1,17.88 h 0.07 v -17.88 h 4.25 v 23.88 h -5.4 l -11.33,-18.45 h -0.07 v 18.45 h -4.25 z"
   id="path19" />
		<path
   fill="#6c6d6f"
   d="m 562.79,274.83 c -0.63,-0.85 -1.45,-1.48 -2.46,-1.87 -1.01,-0.39 -2,-0.59 -2.97,-0.59 -1.24,0 -2.36,0.23 -3.37,0.67 -1.01,0.45 -1.88,1.07 -2.61,1.86 -0.73,0.79 -1.29,1.71 -1.69,2.77 -0.39,1.06 -0.59,2.2 -0.59,3.44 0,1.3 0.19,2.5 0.57,3.58 0.38,1.08 0.93,2.01 1.64,2.78 0.71,0.77 1.56,1.38 2.55,1.8 0.99,0.43 2.1,0.64 3.34,0.64 1.28,0 2.42,-0.25 3.41,-0.76 0.99,-0.51 1.79,-1.17 2.4,-2.01 l 3.41,2.4 c -1.06,1.33 -2.35,2.36 -3.88,3.09 -1.53,0.73 -3.32,1.1 -5.36,1.1 -1.87,0 -3.58,-0.31 -5.14,-0.93 -1.56,-0.62 -2.91,-1.48 -4.03,-2.6 -1.12,-1.11 -2,-2.44 -2.63,-3.98 -0.63,-1.54 -0.94,-3.24 -0.94,-5.11 0,-1.91 0.33,-3.64 1,-5.18 0.66,-1.54 1.57,-2.85 2.73,-3.93 1.16,-1.08 2.52,-1.91 4.1,-2.5 1.57,-0.58 3.28,-0.88 5.13,-0.88 0.76,0 1.56,0.07 2.4,0.22 0.83,0.15 1.63,0.37 2.39,0.67 0.76,0.3 1.48,0.68 2.16,1.13 0.67,0.45 1.25,0.99 1.72,1.62 z"
   id="path20" />
		<path
   fill="#6c6d6f"
   d="m 569.03,269.23 h 15.82 v 3.71 h -11.57 v 6.07 h 10.96 v 3.58 h -10.96 v 6.75 h 12.18 v 3.78 h -16.43 z"
   id="path21" />
		<path
   fill="#6c6d6f"
   d="m 601.78,274.23 c -0.45,-0.58 -1.08,-1.07 -1.91,-1.47 -0.82,-0.39 -1.65,-0.59 -2.48,-0.59 -0.5,0 -0.99,0.06 -1.48,0.19 -0.5,0.12 -0.94,0.31 -1.35,0.57 -0.4,0.26 -0.74,0.6 -1,1.01 -0.26,0.42 -0.39,0.92 -0.39,1.5 0,0.54 0.11,1 0.34,1.38 0.23,0.38 0.53,0.71 0.93,0.98 0.4,0.27 0.87,0.51 1.43,0.71 0.56,0.2 1.18,0.4 1.86,0.61 0.76,0.25 1.56,0.53 2.38,0.84 0.82,0.31 1.57,0.73 2.26,1.25 0.69,0.52 1.25,1.17 1.69,1.96 0.44,0.79 0.66,1.77 0.66,2.93 0,1.28 -0.24,2.4 -0.71,3.36 -0.47,0.96 -1.1,1.75 -1.89,2.38 -0.79,0.63 -1.71,1.1 -2.77,1.42 -1.06,0.31 -2.17,0.47 -3.34,0.47 -1.55,0 -3.07,-0.29 -4.55,-0.86 -1.48,-0.57 -2.7,-1.42 -3.64,-2.55 l 3.04,-2.83 c 0.58,0.81 1.37,1.45 2.34,1.92 0.98,0.47 1.94,0.71 2.88,0.71 0.49,0 1,-0.06 1.52,-0.19 0.52,-0.12 0.98,-0.33 1.4,-0.62 0.42,-0.29 0.75,-0.66 1.01,-1.1 0.26,-0.44 0.39,-0.98 0.39,-1.64 0,-0.63 -0.15,-1.15 -0.44,-1.57 -0.29,-0.42 -0.69,-0.78 -1.18,-1.08 -0.5,-0.3 -1.08,-0.57 -1.75,-0.79 -0.67,-0.22 -1.38,-0.46 -2.12,-0.71 -0.72,-0.22 -1.44,-0.49 -2.16,-0.81 -0.72,-0.32 -1.37,-0.73 -1.94,-1.25 -0.57,-0.52 -1.04,-1.15 -1.4,-1.91 -0.36,-0.75 -0.54,-1.69 -0.54,-2.82 0,-1.21 0.25,-2.26 0.76,-3.14 0.51,-0.88 1.17,-1.6 1.99,-2.18 0.82,-0.57 1.75,-1 2.8,-1.28 1.05,-0.28 2.11,-0.42 3.19,-0.42 1.21,0 2.45,0.21 3.69,0.64 1.25,0.43 2.33,1.07 3.26,1.92 z"
   id="path22" />
		<path
   fill="#6c6d6f"
   d="m 617.4,269.23 h 5.63 l 11.1,17.88 h 0.07 v -17.88 h 4.25 v 23.88 h -5.4 l -11.33,-18.45 h -0.07 v 18.45 h -4.25 z"
   id="path23" />
		<path
   fill="#6c6d6f"
   d="m 643.71,269.23 h 15.82 v 3.71 h -11.57 v 6.07 h 10.96 v 3.58 h -10.96 v 6.75 h 12.18 v 3.78 h -16.43 z"
   id="path24" />
		<path
   fill="#6c6d6f"
   d="m 669.11,272.94 h -7.32 v -3.71 h 18.89 v 3.71 h -7.32 v 20.17 h -4.25 z"
   id="path25" />
		<path
   fill="#6c6d6f"
   d="m 681.02,269.23 h 4.66 l 4.62,17.54 h 0.07 l 5.26,-17.54 h 4.39 l 5.16,17.54 h 0.07 l 4.72,-17.54 h 4.52 l -6.98,23.88 h -4.12 l -5.6,-17.91 h -0.07 l -5.6,17.91 H 688 Z"
   id="path26" />
		<path
   fill="#6c6d6f"
   d="m 715.77,281.11 c 0,-1.91 0.32,-3.64 0.96,-5.18 0.64,-1.54 1.53,-2.85 2.67,-3.93 1.14,-1.08 2.49,-1.91 4.05,-2.5 1.56,-0.58 3.27,-0.88 5.11,-0.88 1.87,0 3.59,0.29 5.16,0.88 1.57,0.58 2.93,1.42 4.08,2.5 1.15,1.08 2.04,2.39 2.68,3.93 0.64,1.54 0.96,3.27 0.96,5.18 0,1.87 -0.32,3.57 -0.96,5.11 -0.64,1.54 -1.54,2.87 -2.68,3.98 -1.15,1.11 -2.51,1.98 -4.08,2.6 -1.57,0.62 -3.29,0.93 -5.16,0.93 -1.84,0 -3.55,-0.31 -5.11,-0.93 -1.56,-0.62 -2.91,-1.48 -4.05,-2.6 -1.14,-1.12 -2.02,-2.44 -2.67,-3.98 -0.64,-1.54 -0.96,-3.24 -0.96,-5.11 z m 4.62,0 c 0,1.28 0.2,2.46 0.59,3.53 0.39,1.07 0.96,2 1.69,2.78 0.73,0.79 1.6,1.4 2.6,1.84 1,0.44 2.11,0.66 3.32,0.66 1.21,0 2.33,-0.22 3.34,-0.66 1.01,-0.44 1.88,-1.05 2.61,-1.84 0.73,-0.79 1.29,-1.71 1.69,-2.78 0.39,-1.07 0.59,-2.24 0.59,-3.53 0,-1.24 -0.2,-2.38 -0.59,-3.44 -0.39,-1.06 -0.95,-1.98 -1.67,-2.77 -0.72,-0.79 -1.58,-1.41 -2.6,-1.86 -1.01,-0.45 -2.14,-0.67 -3.37,-0.67 -1.24,0 -2.36,0.23 -3.36,0.67 -1,0.45 -1.86,1.07 -2.58,1.86 -0.72,0.79 -1.28,1.71 -1.67,2.77 -0.4,1.05 -0.59,2.2 -0.59,3.44 z"
   id="path27" />
		<path
   fill="#6c6d6f"
   d="m 745.55,269.23 h 8.3 c 1.12,0 2.21,0.12 3.27,0.35 1.06,0.24 2,0.62 2.82,1.16 0.82,0.54 1.48,1.25 1.97,2.13 0.49,0.88 0.74,1.95 0.74,3.2 0,1.73 -0.49,3.14 -1.47,4.23 -0.98,1.09 -2.31,1.83 -4,2.21 l 6.38,10.59 h -5.13 L 752.91,283 h -3.1 v 10.12 h -4.25 v -23.89 z m 7.73,10.29 c 0.61,0 1.21,-0.04 1.82,-0.13 0.61,-0.09 1.15,-0.26 1.64,-0.51 0.48,-0.25 0.88,-0.6 1.2,-1.06 0.31,-0.46 0.47,-1.05 0.47,-1.77 0,-0.65 -0.15,-1.19 -0.44,-1.6 -0.29,-0.42 -0.66,-0.75 -1.11,-1 -0.45,-0.25 -0.96,-0.42 -1.53,-0.51 -0.57,-0.09 -1.13,-0.14 -1.67,-0.14 h -3.85 v 6.71 h 3.47 z"
   id="path28" />
		<path
   fill="#6c6d6f"
   d="m 766.77,269.23 h 4.25 v 10.32 h 0.1 l 9.99,-10.32 h 5.73 l -11.17,11.03 11.91,12.85 h -5.97 l -10.49,-11.98 h -0.1 v 11.98 h -4.25 z"
   id="path29" />
	</g>
</g>
</svg>
