<?xml version="1.0" encoding="UTF-8"?>
<svg xmlns="http://www.w3.org/2000/svg" width="800" height="380.512" xmlns:xlink="http://www.w3.org/1999/xlink" viewBox="0 0 800 380.512">
  <defs>
    <style>
      .i {
        fill: none;
      }

      .j {
        fill: #4d515e;
      }

      .k {
        fill: #fff;
      }

      .l {
        fill: #64d2ff;
        opacity: .75;
      }

      .m {
        clip-path: url(#d);
      }
    </style>
    <clipPath id="d">
      <rect class="i" x="0" width="800" height="380.512"/>
    </clipPath>
  </defs>
  <g id="a" data-name="Background">
    <rect class="k" x="0" width="800" height="380.512"/>
  </g>
  <g id="c" data-name="Layer 2">
    <g class="m">
      <g>
        <g>
          <path id="e" data-name="path2-5" class="j" d="M294.084,190.252c0,57.561-46.641,104.222-104.178,104.222s-104.18-46.661-104.18-104.222,46.641-104.215,104.18-104.215,104.178,46.663,104.178,104.215"/>
          <g>
            <path id="f" data-name="path11-4" class="l" d="M268.653,228.808c-4.672.476-9.963.812-15.769.854-21.646.172-50.371-3.708-80.402-19.369-5.242-2.731-10.164-5.641-14.792-8.672-10.198-6.682-18.962-13.97-26.451-21.344-15.455-15.234-25.467-30.831-31.479-42.177-6.697,11.575-11.234,24.561-13.052,38.404,6.041,7.953,13.95,16.838,24.063,25.567,7.951,6.861,17.273,13.622,28.12,19.754,7.882,4.458,16.568,8.581,26.124,12.154,36.799,13.764,67.986,13.406,89.759,9.742,4.957-.836,9.421-1.84,13.351-2.888,6.938-1.855,12.216-3.845,15.597-5.278,1.568-3.244,2.972-6.583,4.206-10.007-3.622.906-10.312,2.341-19.276,3.261"/>
            <path id="g" data-name="path5-6" class="l" d="M284.813,147.199c-13.379-3.88-32.299-7.715-53.794-7.217-11.089.265-22.856,1.683-34.902,4.844-7.317,1.917-14.733,4.471-22.166,7.809-17.207,7.723-31.285,17.465-42.711,27.643-8.108,7.23-14.876,14.677-20.468,21.786-8.123,10.333-13.764,19.94-17.415,27.123,5.114,12.68,12.652,24.119,22.044,33.746,3.987-10.377,11.19-25.425,23.491-41.108,5.278-6.724,11.496-13.57,18.799-20.203,5.87-5.342,12.439-10.547,19.791-15.455,14.598-9.742,29.304-15.975,43.289-19.811,9.393-2.576,18.463-4.066,26.951-4.807,17.551-1.526,32.605.157,42.931,2.096-1.49-5.683-3.451-11.182-5.84-16.446"/>
            <path id="h" data-name="path8-4" class="l" d="M247.49,160.917c-4.675-7.058-10.277-14.204-16.95-21.374-1.63-1.743-3.321-3.491-5.074-5.24-24.348-24.204-47.283-36.994-66.586-43.483-16.488,5.169-31.203,14.317-43.019,26.321,17.285,1.541,49.588,7.212,79.834,27.647,8.597,5.806,17.022,12.806,24.893,21.246.484.515.961,1.03,1.437,1.559,18.711,20.654,27.569,42.44,31.411,61.374.991,4.896,1.644,9.589,2.051,14.035,1.078,11.848.372,21.847-.554,28.712,3.349-2.677,6.54-5.553,9.536-8.618,1.744-5.826,3.551-13.72,4.335-23.136.32-3.778.473-7.802.389-12.029-.364-19.11-5.475-42.51-21.704-67.014"/>
          </g>
        </g>
        <g>
          <path class="j" d="M567.127,230.398v-35.795c0-5.534-.842-12.373-2.525-16.66-1.689-4.3-4.206-7.693-7.558-10.184-3.345-2.496-7.568-3.743-12.667-3.743-5.926,0-11.325,1.512-16.196,4.542-2.951,1.827-5.681,3.841-8.243,6.001-.526-2.184-1.33-4.075-2.461-5.616-2.103-2.881-5.369-4.329-9.791-4.329h-8.637l-1.09,1.07v84.317c1.61.329,3.429.549,5.441.663,2.025.115,3.987.172,5.87.172,1.926,0,3.907-.057,5.955-.172,2.059-.113,3.865-.334,5.419-.663v-56.262c.272-.267.532-.554.814-.806,2.496-2.211,5.048-3.858,7.652-4.928,2.596-1.084,4.942-1.625,7.045-1.625,3.268,0,5.472,1.026,6.598,3.08,1.141,2.047,1.711,5.249,1.711,9.621v38.124c0,4.493.885,7.953,2.66,10.399,1.769,2.425,4.893,3.637,9.379,3.637,2.832,0,5.499-.456,8.017-1.369,2.51-.913,4.606-2.09,6.275-3.538-1.326-2.039-2.268-4.415-2.832-7.131-.555-2.709-.834-5.649-.834-8.807Z"/>
          <path class="j" d="M476.205,191.808c-3.715-3.158-8.172-5.798-13.371-7.909l-20.174-8.294c-3.816-1.612-6.655-3.352-8.51-5.227-1.853-1.89-2.781-4.186-2.781-6.903,0-3.096,1.283-5.862,3.858-8.294,2.574-2.439,6.532-3.666,11.845-3.666,4.365,0,9.3.827,14.799,2.467,5.512,1.627,10.405,3.467,14.677,5.506,2.211-2.096,4.051-4.714,5.506-7.845,1.468-3.124,2.289-6.383,2.459-9.769-4.329-2.211-9.784-4.287-16.367-6.213-6.582-1.939-13.634-2.916-21.158-2.916-7.475,0-14.186,1.433-20.141,4.285-5.954,2.846-10.66,6.804-14.113,11.874-3.467,5.057-5.185,10.92-5.185,17.572,0,7.631,2.182,13.801,6.554,18.514,4.371,4.707,10.012,8.55,16.944,11.553l20.004,8.294c4.758,1.997,7.96,4.258,9.622,6.768,1.669,2.518,2.503,5.05,2.503,7.61,0,3.374-1.342,6.341-4.022,8.893-2.689,2.547-6.768,3.816-12.252,3.816-5.87,0-11.761-1.099-17.658-3.281-5.899-2.189-11.226-4.751-15.975-7.695-2.218,1.89-4.223,4.471-6.019,7.737-1.804,3.261-2.866,6.554-3.195,9.879h0c5.983,3.872,12.652,6.896,20.012,9.063,7.367,2.154,14.449,3.239,21.246,3.239,9.47,0,17.344-1.519,23.627-4.564,6.282-3.053,11.004-7.202,14.164-12.431,3.151-5.227,4.736-11.111,4.736-17.658,0-4.928-1.021-9.435-3.045-13.521-2.012-4.101-4.878-7.723-8.588-10.883Z"/>
          <path class="j" d="M345.504,231.332c-.515.032-1.059.063-1.582.095l-.008-.16c-.101-1.961.027-3.757.084-5.391.058-1.639.086-3.423.086-5.347v-18.403c1.87.039,3.787.067,5.521.087,2.403.029,4.278.044,5.634.044h27.999c.449-1.583.769-3.295.962-5.128.199-1.84.299-3.394.299-4.699,0-1.291-.101-2.866-.299-4.736-.194-1.86-.513-3.522-.962-4.977h-27.999c-1.356,0-3.231.015-5.634.042-1.805.017-3.662.051-5.521.087v-16.04c0-2.319-.027-4.329-.086-6.049-.054-1.65-.189-3.612-.091-5.869,1.921.043,3.835.084,5.698.1,2.403.037,4.278.051,5.634.051h37.597c.672-1.862,1.141-3.766,1.42-5.7.292-1.953.435-3.607.435-4.955,0-1.298-.042-2.731-.128-4.301-.086-1.583-.272-3.259-.55-5.021h-71.232l-1.176,1.198.135,100.686c.007,4.358,1.212,7.787,3.622,10.304,2.432,2.503,5.764,3.759,9.999,3.759h1.541s45.265,0,45.265,0c6.196,0,10.348-1.654,12.459-4.957,2.125-3.301,3.188-8.309,3.188-15.018h-41.898c-3.887,0-7.354.099-10.412.299Z"/>
          <path class="j" d="M713.163,164.044l-20.397.241v-23.404l-1.185-1.099h-9.006c-4.65,0-7.896,1.07-9.735,3.202-1.848,2.125-2.768,5.762-2.768,10.905v10.327l-13.001-.172c-.677,2.782-1.006,5.528-1.006,8.245,0,2.96.329,5.769,1.006,8.429l13.001-.212v48.971c0,7.253,1.725,12.645,5.178,16.161,3.465,3.514,8.679,5.269,15.654,5.269,3.345,0,6.897-.164,10.655-.484,3.772-.307,7.182-.657,10.24-1.055.228-.785.35-1.649.35-2.589v-2.589c0-1.869-.15-3.816-.434-5.835-.279-2.017-.707-3.816-1.278-5.391h-10.348c-2.616,0-4.493-.692-5.634-2.081-1.126-1.391-1.689-3.273-1.689-5.663v-44.786l20.397.284c.405-1.362.69-2.753.854-4.172.172-1.413.257-2.832.257-4.258,0-2.76-.371-5.506-1.112-8.245Z"/>
          <path class="j" d="M634.336,168.294c-5.057-3.095-11.239-4.65-18.549-4.65-8.358,0-15.204,1.941-20.546,5.806-5.342,3.88-9.293,9.128-11.847,15.754-2.545,6.618-3.814,14.1-3.814,22.458,0,5.548.548,10.898,1.654,16.053,1.112,5.141,3.023,9.762,5.74,13.864,2.711,4.086,6.383,7.323,11.033,9.705,4.65,2.388,10.498,3.58,17.545,3.58,5.848,0,11.639-.812,17.372-2.439,5.742-1.641,10.627-3.958,14.671-6.947-.287-2.275-.957-4.707-2.012-7.31-1.041-2.609-2.454-4.741-4.223-6.405-3.423,1.556-6.996,2.846-10.711,3.881-3.715,1.011-7.595,1.519-11.631,1.519-4.586,0-8.066-1.063-10.454-3.195-2.39-2.14-4.002-5.001-4.858-8.595-.512-2.138-.852-4.417-1.059-6.81h45.354c.714-2.603,1.205-5.035,1.484-7.31.278-2.268.427-5.07.427-8.4,0-6.697-1.333-12.689-3.987-17.979-2.653-5.285-6.525-9.477-11.588-12.581ZM628.744,198.683h-26.209c.319-5.508,1.324-9.849,3.032-12.986,2.11-3.86,5.492-5.784,10.134-5.784,3.151,0,5.683.763,7.602,2.288,1.911,1.534,3.301,3.573,4.157,6.112.856,2.547,1.284,5.335,1.284,8.38v1.99Z"/>
        </g>
      </g>
    </g>
  </g>
</svg>